<?xml version="1.0" encoding="utf-8" standalone="no"?>
<!DOCTYPE svg PUBLIC "-//W3C//DTD SVG 1.1//EN"
  "http://www.w3.org/Graphics/SVG/1.1/DTD/svg11.dtd">
<svg xmlns:xlink="http://www.w3.org/1999/xlink" width="460.8pt" height="345.6pt" viewBox="0 0 460.8 345.6" xmlns="http://www.w3.org/2000/svg" version="1.1">
 <metadata>
  <rdf:RDF xmlns:dc="http://purl.org/dc/elements/1.1/" xmlns:cc="http://creativecommons.org/ns#" xmlns:rdf="http://www.w3.org/1999/02/22-rdf-syntax-ns#">
   <cc:Work>
    <dc:type rdf:resource="http://purl.org/dc/dcmitype/StillImage"/>
    <dc:date>2024-09-23T17:23:38.801230</dc:date>
    <dc:format>image/svg+xml</dc:format>
    <dc:creator>
     <cc:Agent>
      <dc:title>Matplotlib v3.9.1, https://matplotlib.org/</dc:title>
     </cc:Agent>
    </dc:creator>
   </cc:Work>
  </rdf:RDF>
 </metadata>
 <defs>
  <style type="text/css">*{stroke-linejoin: round; stroke-linecap: butt}</style>
 </defs>
 <g id="figure_1">
  <g id="patch_1">
   <path d="M 0 345.6 
L 460.8 345.6 
L 460.8 0 
L 0 0 
z
" style="fill: #ffffff"/>
  </g>
  <g id="axes_1">
   <g id="patch_2">
    <path d="M 63.74 297.88 
L 450 297.88 
L 450 26.88 
L 63.74 26.88 
z
" style="fill: #ffffff"/>
   </g>
   <g id="PolyCollection_1">
    <defs>
     <path id="m655cf38fdc" d="M 86.365272 -79.668098 
L 84.032506 -79.668098 
L 83.275048 -81.559638 
L 82.192712 -83.451177 
L 80.746547 -85.342717 
L 78.944797 -87.234257 
L 76.860208 -89.125796 
L 74.63427 -91.017336 
L 72.462467 -92.908875 
L 70.560672 -94.800415 
L 69.120457 -96.691955 
L 68.266748 -98.583494 
L 68.031778 -100.475034 
L 68.353797 -102.366574 
L 69.099909 -104.258113 
L 70.103789 -106.149653 
L 71.204925 -108.041192 
L 72.277623 -109.932732 
L 73.243871 -111.824272 
L 74.070921 -113.715811 
L 74.759134 -115.607351 
L 75.326927 -117.49889 
L 75.79813 -119.39043 
L 76.194215 -121.28197 
L 76.531313 -123.173509 
L 76.820434 -125.065049 
L 77.069084 -126.956589 
L 77.282938 -128.848128 
L 77.467051 -130.739668 
L 77.626613 -132.631207 
L 77.767522 -134.522747 
L 77.896845 -136.414287 
L 78.023009 -138.305826 
L 78.155365 -140.197366 
L 78.302938 -142.088905 
L 78.472528 -143.980445 
L 78.666808 -145.871985 
L 78.883208 -147.763524 
L 79.114248 -149.655064 
L 79.349407 -151.546604 
L 79.578018 -153.438143 
L 79.792254 -155.329683 
L 79.989203 -157.221222 
L 80.171358 -159.112762 
L 80.345413 -161.004302 
L 80.519791 -162.895841 
L 80.701717 -164.787381 
L 80.894766 -166.67892 
L 81.097623 -168.57046 
L 81.304412 -170.462 
L 81.506449 -172.353539 
L 81.694858 -174.245079 
L 81.86321 -176.136619 
L 82.009414 -178.028158 
L 82.13629 -179.919698 
L 82.250711 -181.811237 
L 82.361596 -183.702777 
L 82.477371 -185.594317 
L 82.603634 -187.485856 
L 82.741672 -189.377396 
L 82.888217 -191.268935 
L 83.036439 -193.160475 
L 83.177839 -195.052015 
L 83.304491 -196.943554 
L 83.411034 -198.835094 
L 83.495966 -200.726634 
L 83.561991 -202.618173 
L 83.615394 -204.509713 
L 83.664625 -206.401252 
L 83.718399 -208.292792 
L 83.783746 -210.184332 
L 83.864462 -212.075871 
L 83.960346 -213.967411 
L 84.067428 -215.85895 
L 84.179084 -217.75049 
L 84.287694 -219.64203 
L 84.386329 -221.533569 
L 84.469992 -223.425109 
L 84.536148 -225.316649 
L 84.584544 -227.208188 
L 84.616563 -229.099728 
L 84.634484 -230.991267 
L 84.640956 -232.882807 
L 84.638826 -234.774347 
L 84.631274 -236.665886 
L 84.622027 -238.557426 
L 84.615385 -240.448965 
L 84.615892 -242.340505 
L 84.627656 -244.232045 
L 84.653485 -246.123584 
L 84.694168 -248.015124 
L 84.74815 -249.906664 
L 84.811769 -251.798203 
L 84.88 -253.689743 
L 84.947477 -255.581282 
L 85.009499 -257.472822 
L 85.062755 -259.364362 
L 85.105621 -261.255901 
L 85.13804 -263.147441 
L 85.161115 -265.03898 
L 85.176592 -266.93052 
L 85.221186 -266.93052 
L 85.221186 -266.93052 
L 85.236663 -265.03898 
L 85.259738 -263.147441 
L 85.292157 -261.255901 
L 85.335023 -259.364362 
L 85.388279 -257.472822 
L 85.450301 -255.581282 
L 85.517778 -253.689743 
L 85.586009 -251.798203 
L 85.649628 -249.906664 
L 85.70361 -248.015124 
L 85.744292 -246.123584 
L 85.770122 -244.232045 
L 85.781885 -242.340505 
L 85.782393 -240.448965 
L 85.775751 -238.557426 
L 85.766504 -236.665886 
L 85.758952 -234.774347 
L 85.756822 -232.882807 
L 85.763293 -230.991267 
L 85.781215 -229.099728 
L 85.813234 -227.208188 
L 85.861629 -225.316649 
L 85.927786 -223.425109 
L 86.011449 -221.533569 
L 86.110084 -219.64203 
L 86.218694 -217.75049 
L 86.33035 -215.85895 
L 86.437432 -213.967411 
L 86.533316 -212.075871 
L 86.614032 -210.184332 
L 86.679379 -208.292792 
L 86.733153 -206.401252 
L 86.782383 -204.509713 
L 86.835787 -202.618173 
L 86.901812 -200.726634 
L 86.986744 -198.835094 
L 87.093287 -196.943554 
L 87.219938 -195.052015 
L 87.361339 -193.160475 
L 87.509561 -191.268935 
L 87.656106 -189.377396 
L 87.794144 -187.485856 
L 87.920407 -185.594317 
L 88.036182 -183.702777 
L 88.147067 -181.811237 
L 88.261488 -179.919698 
L 88.388364 -178.028158 
L 88.534568 -176.136619 
L 88.70292 -174.245079 
L 88.891328 -172.353539 
L 89.093366 -170.462 
L 89.300155 -168.57046 
L 89.503012 -166.67892 
L 89.696061 -164.787381 
L 89.877987 -162.895841 
L 90.052365 -161.004302 
L 90.22642 -159.112762 
L 90.408575 -157.221222 
L 90.605524 -155.329683 
L 90.81976 -153.438143 
L 91.048371 -151.546604 
L 91.28353 -149.655064 
L 91.51457 -147.763524 
L 91.73097 -145.871985 
L 91.925249 -143.980445 
L 92.09484 -142.088905 
L 92.242413 -140.197366 
L 92.374769 -138.305826 
L 92.500933 -136.414287 
L 92.630255 -134.522747 
L 92.771164 -132.631207 
L 92.930727 -130.739668 
L 93.11484 -128.848128 
L 93.328694 -126.956589 
L 93.577343 -125.065049 
L 93.866465 -123.173509 
L 94.203563 -121.28197 
L 94.599648 -119.39043 
L 95.07085 -117.49889 
L 95.638644 -115.607351 
L 96.326857 -113.715811 
L 97.153907 -111.824272 
L 98.120154 -109.932732 
L 99.192852 -108.041192 
L 100.293989 -106.149653 
L 101.297869 -104.258113 
L 102.043981 -102.366574 
L 102.366 -100.475034 
L 102.13103 -98.583494 
L 101.277321 -96.691955 
L 99.837105 -94.800415 
L 97.935311 -92.908875 
L 95.763508 -91.017336 
L 93.53757 -89.125796 
L 91.452981 -87.234257 
L 89.651231 -85.342717 
L 88.205066 -83.451177 
L 87.12273 -81.559638 
L 86.365272 -79.668098 
z
" style="stroke: #4c4c4c; stroke-width: 1.25"/>
    </defs>
    <g clip-path="url(#pbc052557a1)">
     <use xlink:href="#m655cf38fdc" x="0" y="345.6" style="fill: #ecf1f0; stroke: #4c4c4c; stroke-width: 1.25"/>
    </g>
   </g>
   <g id="PolyCollection_2">
    <defs>
     <path id="mc4b03a0cd7" d="M 128.418908 -60.038182 
L 127.814426 -60.038182 
L 127.597269 -62.526703 
L 127.261381 -65.015225 
L 126.766159 -67.503747 
L 126.070312 -69.992268 
L 125.138852 -72.48079 
L 123.95186 -74.969311 
L 122.513489 -77.457833 
L 120.858975 -79.946354 
L 119.057238 -82.434876 
L 117.207185 -84.923398 
L 115.427121 -87.411919 
L 113.838459 -89.900441 
L 112.546743 -92.388962 
L 111.624253 -94.877484 
L 111.098476 -97.366006 
L 110.949556 -99.854527 
L 111.117486 -102.343049 
L 111.517202 -104.83157 
L 112.057585 -107.320092 
L 112.659543 -109.808613 
L 113.268851 -112.297135 
L 113.861178 -114.785657 
L 114.439033 -117.274178 
L 115.0224 -119.7627 
L 115.636306 -122.251221 
L 116.298906 -124.739743 
L 117.013175 -127.228264 
L 117.763971 -129.716786 
L 118.52062 -132.205308 
L 119.243632 -134.693829 
L 119.893247 -137.182351 
L 120.437318 -139.670872 
L 120.856702 -142.159394 
L 121.147379 -144.647916 
L 121.319639 -147.136437 
L 121.395335 -149.624959 
L 121.404322 -152.11348 
L 121.380848 -154.602002 
L 121.360122 -157.090523 
L 121.374911 -159.579045 
L 121.452022 -162.067567 
L 121.608844 -164.556088 
L 121.850575 -167.04461 
L 122.168989 -169.533131 
L 122.543414 -172.021653 
L 122.944062 -174.510174 
L 123.337099 -176.998696 
L 123.69033 -179.487218 
L 123.978277 -181.975739 
L 124.185731 -184.464261 
L 124.309433 -186.952782 
L 124.357999 -189.441304 
L 124.350411 -191.929826 
L 124.313353 -194.418347 
L 124.277548 -196.906869 
L 124.273301 -199.39539 
L 124.325714 -201.883912 
L 124.450398 -204.372433 
L 124.650721 -206.860955 
L 124.917435 -209.349477 
L 125.230948 -211.837998 
L 125.565683 -214.32652 
L 125.895361 -216.815041 
L 126.197768 -219.303563 
L 126.457892 -221.792084 
L 126.66892 -224.280606 
L 126.831324 -226.769128 
L 126.950717 -229.257649 
L 127.03534 -231.746171 
L 127.09386 -234.234692 
L 127.133853 -236.723214 
L 127.161002 -239.211736 
L 127.178868 -241.700257 
L 127.188973 -244.188779 
L 127.191029 -246.6773 
L 127.183212 -249.165822 
L 127.162513 -251.654343 
L 127.125252 -254.142865 
L 127.067867 -256.631387 
L 126.988011 -259.119908 
L 126.885873 -261.60843 
L 126.765453 -264.096951 
L 126.635383 -266.585473 
L 126.508848 -269.073994 
L 126.402279 -271.562516 
L 126.332856 -274.051038 
L 126.315246 -276.539559 
L 126.358392 -279.028081 
L 126.46328 -281.516602 
L 126.62239 -284.005124 
L 126.821075 -286.493646 
L 127.040471 -288.982167 
L 127.261111 -291.470689 
L 127.466247 -293.95921 
L 127.644105 -296.447732 
L 127.788698 -298.936253 
L 127.899324 -301.424775 
L 127.97918 -303.913297 
L 128.03367 -306.401818 
L 128.199663 -306.401818 
L 128.199663 -306.401818 
L 128.254153 -303.913297 
L 128.334009 -301.424775 
L 128.444635 -298.936253 
L 128.589229 -296.447732 
L 128.767086 -293.95921 
L 128.972222 -291.470689 
L 129.192862 -288.982167 
L 129.412259 -286.493646 
L 129.610944 -284.005124 
L 129.770053 -281.516602 
L 129.874941 -279.028081 
L 129.918088 -276.539559 
L 129.900478 -274.051038 
L 129.831054 -271.562516 
L 129.724485 -269.073994 
L 129.59795 -266.585473 
L 129.467881 -264.096951 
L 129.34746 -261.60843 
L 129.245322 -259.119908 
L 129.165466 -256.631387 
L 129.108082 -254.142865 
L 129.070821 -251.654343 
L 129.050121 -249.165822 
L 129.042304 -246.6773 
L 129.04436 -244.188779 
L 129.054465 -241.700257 
L 129.072331 -239.211736 
L 129.099481 -236.723214 
L 129.139473 -234.234692 
L 129.197994 -231.746171 
L 129.282617 -229.257649 
L 129.40201 -226.769128 
L 129.564413 -224.280606 
L 129.775441 -221.792084 
L 130.035565 -219.303563 
L 130.337972 -216.815041 
L 130.66765 -214.32652 
L 131.002385 -211.837998 
L 131.315898 -209.349477 
L 131.582613 -206.860955 
L 131.782936 -204.372433 
L 131.90762 -201.883912 
L 131.960033 -199.39539 
L 131.955785 -196.906869 
L 131.91998 -194.418347 
L 131.882922 -191.929826 
L 131.875334 -189.441304 
L 131.9239 -186.952782 
L 132.047602 -184.464261 
L 132.255056 -181.975739 
L 132.543003 -179.487218 
L 132.896235 -176.998696 
L 133.289271 -174.510174 
L 133.68992 -172.021653 
L 134.064344 -169.533131 
L 134.382758 -167.04461 
L 134.62449 -164.556088 
L 134.781311 -162.067567 
L 134.858422 -159.579045 
L 134.873211 -157.090523 
L 134.852485 -154.602002 
L 134.829011 -152.11348 
L 134.837998 -149.624959 
L 134.913694 -147.136437 
L 135.085955 -144.647916 
L 135.376632 -142.159394 
L 135.796015 -139.670872 
L 136.340086 -137.182351 
L 136.989701 -134.693829 
L 137.712713 -132.205308 
L 138.469362 -129.716786 
L 139.220158 -127.228264 
L 139.934427 -124.739743 
L 140.597027 -122.251221 
L 141.210933 -119.7627 
L 141.794301 -117.274178 
L 142.372155 -114.785657 
L 142.964483 -112.297135 
L 143.57379 -109.808613 
L 144.175749 -107.320092 
L 144.716132 -104.83157 
L 145.115847 -102.343049 
L 145.283778 -99.854527 
L 145.134857 -97.366006 
L 144.60908 -94.877484 
L 143.68659 -92.388962 
L 142.394875 -89.900441 
L 140.806212 -87.411919 
L 139.026149 -84.923398 
L 137.176096 -82.434876 
L 135.374358 -79.946354 
L 133.719844 -77.457833 
L 132.281473 -74.969311 
L 131.094481 -72.48079 
L 130.163021 -69.992268 
L 129.467175 -67.503747 
L 128.971952 -65.015225 
L 128.636064 -62.526703 
L 128.418908 -60.038182 
z
" style="stroke: #4c4c4c; stroke-width: 1.25"/>
    </defs>
    <g clip-path="url(#pbc052557a1)">
     <use xlink:href="#mc4b03a0cd7" x="0" y="345.6" style="fill: #dae7e4; stroke: #4c4c4c; stroke-width: 1.25"/>
    </g>
   </g>
   <g id="PolyCollection_3">
    <defs>
     <path id="mdcd1d609af" d="M 172.141709 -80.400995 
L 169.92718 -80.400995 
L 169.149961 -82.320462 
L 168.016625 -84.23993 
L 166.484029 -86.159397 
L 164.568088 -88.078865 
L 162.363915 -89.998332 
L 160.046491 -91.917799 
L 157.844942 -93.837267 
L 155.993784 -95.756734 
L 154.675648 -97.676201 
L 153.976049 -99.595669 
L 153.867333 -101.515136 
L 154.22712 -103.434604 
L 154.882304 -105.354071 
L 155.660372 -107.273538 
L 156.429595 -109.193006 
L 157.11738 -111.112473 
L 157.706557 -113.03194 
L 158.217257 -114.951408 
L 158.68459 -116.870875 
L 159.140286 -118.790343 
L 159.602281 -120.70981 
L 160.072388 -122.629277 
L 160.53984 -124.548745 
L 160.98766 -126.468212 
L 161.399118 -128.387679 
L 161.762392 -130.307147 
L 162.072636 -132.226614 
L 162.33172 -134.146082 
L 162.546589 -136.065549 
L 162.727339 -137.985016 
L 162.885757 -139.904484 
L 163.034455 -141.823951 
L 163.186173 -143.743418 
L 163.35273 -145.662886 
L 163.543401 -147.582353 
L 163.763061 -149.50182 
L 164.010852 -151.421288 
L 164.280117 -153.340755 
L 164.559895 -155.260223 
L 164.837651 -157.17969 
L 165.102433 -159.099157 
L 165.347481 -161.018625 
L 165.571578 -162.938092 
L 165.778797 -164.857559 
L 165.976773 -166.777027 
L 166.173983 -168.696494 
L 166.37684 -170.615962 
L 166.587464 -172.535429 
L 166.80291 -174.454896 
L 167.016191 -176.374364 
L 167.218777 -178.293831 
L 167.403746 -180.213298 
L 167.568413 -182.132766 
L 167.715499 -184.052233 
L 167.852403 -185.971701 
L 167.988842 -187.891168 
L 168.133693 -189.810635 
L 168.292115 -191.730103 
L 168.463863 -193.64957 
L 168.643308 -195.569037 
L 168.821033 -197.488505 
L 168.98645 -199.407972 
L 169.130619 -201.32744 
L 169.24853 -203.246907 
L 169.340364 -205.166374 
L 169.411528 -207.085842 
L 169.471543 -209.005309 
L 169.531981 -210.924776 
L 169.603879 -212.844244 
L 169.695167 -214.763711 
L 169.808767 -216.683178 
L 169.941919 -218.602646 
L 170.086959 -220.522113 
L 170.233324 -222.441581 
L 170.370125 -224.361048 
L 170.48852 -226.280515 
L 170.583205 -228.199983 
L 170.652776 -230.11945 
L 170.699082 -232.038917 
L 170.726008 -233.958385 
L 170.738194 -235.877852 
L 170.740103 -237.79732 
L 170.735611 -239.716787 
L 170.728057 -241.636254 
L 170.720524 -243.555722 
L 170.716027 -245.475189 
L 170.717427 -247.394656 
L 170.727025 -249.314124 
L 170.746019 -251.233591 
L 170.774083 -253.153059 
L 170.809315 -255.072526 
L 170.848618 -256.991993 
L 170.888404 -258.911461 
L 170.925383 -260.830928 
L 170.957166 -262.750395 
L 170.982547 -264.669863 
L 171.001443 -266.58933 
L 171.014587 -268.508798 
L 171.023145 -270.428265 
L 171.045744 -270.428265 
L 171.045744 -270.428265 
L 171.054302 -268.508798 
L 171.067446 -266.58933 
L 171.086342 -264.669863 
L 171.111723 -262.750395 
L 171.143506 -260.830928 
L 171.180484 -258.911461 
L 171.220271 -256.991993 
L 171.259574 -255.072526 
L 171.294806 -253.153059 
L 171.32287 -251.233591 
L 171.341864 -249.314124 
L 171.351462 -247.394656 
L 171.352862 -245.475189 
L 171.348365 -243.555722 
L 171.340832 -241.636254 
L 171.333278 -239.716787 
L 171.328785 -237.79732 
L 171.330695 -235.877852 
L 171.342881 -233.958385 
L 171.369807 -232.038917 
L 171.416113 -230.11945 
L 171.485684 -228.199983 
L 171.580369 -226.280515 
L 171.698763 -224.361048 
L 171.835565 -222.441581 
L 171.98193 -220.522113 
L 172.12697 -218.602646 
L 172.260122 -216.683178 
L 172.373722 -214.763711 
L 172.465009 -212.844244 
L 172.536908 -210.924776 
L 172.597346 -209.005309 
L 172.657361 -207.085842 
L 172.728525 -205.166374 
L 172.820358 -203.246907 
L 172.93827 -201.32744 
L 173.082439 -199.407972 
L 173.247856 -197.488505 
L 173.425581 -195.569037 
L 173.605026 -193.64957 
L 173.776774 -191.730103 
L 173.935195 -189.810635 
L 174.080047 -187.891168 
L 174.216486 -185.971701 
L 174.35339 -184.052233 
L 174.500476 -182.132766 
L 174.665143 -180.213298 
L 174.850112 -178.293831 
L 175.052698 -176.374364 
L 175.265979 -174.454896 
L 175.481425 -172.535429 
L 175.692048 -170.615962 
L 175.894906 -168.696494 
L 176.092116 -166.777027 
L 176.290092 -164.857559 
L 176.497311 -162.938092 
L 176.721408 -161.018625 
L 176.966456 -159.099157 
L 177.231237 -157.17969 
L 177.508994 -155.260223 
L 177.788772 -153.340755 
L 178.058037 -151.421288 
L 178.305828 -149.50182 
L 178.525488 -147.582353 
L 178.716159 -145.662886 
L 178.882716 -143.743418 
L 179.034434 -141.823951 
L 179.183132 -139.904484 
L 179.34155 -137.985016 
L 179.5223 -136.065549 
L 179.737169 -134.146082 
L 179.996253 -132.226614 
L 180.306497 -130.307147 
L 180.669771 -128.387679 
L 181.081229 -126.468212 
L 181.529049 -124.548745 
L 181.996501 -122.629277 
L 182.466608 -120.70981 
L 182.928602 -118.790343 
L 183.384298 -116.870875 
L 183.851632 -114.951408 
L 184.362332 -113.03194 
L 184.951509 -111.112473 
L 185.639294 -109.193006 
L 186.408517 -107.273538 
L 187.186585 -105.354071 
L 187.841769 -103.434604 
L 188.201556 -101.515136 
L 188.09284 -99.595669 
L 187.393241 -97.676201 
L 186.075105 -95.756734 
L 184.223947 -93.837267 
L 182.022398 -91.917799 
L 179.704973 -89.998332 
L 177.500801 -88.078865 
L 175.58486 -86.159397 
L 174.052264 -84.23993 
L 172.918928 -82.320462 
L 172.141709 -80.400995 
z
" style="stroke: #4c4c4c; stroke-width: 1.25"/>
    </defs>
    <g clip-path="url(#pbc052557a1)">
     <use xlink:href="#mdcd1d609af" x="0" y="345.6" style="fill: #c9ddd8; stroke: #4c4c4c; stroke-width: 1.25"/>
    </g>
   </g>
   <g id="PolyCollection_4">
    <defs>
     <path id="m4c07e98721" d="M 214.110751 -61.38782 
L 213.793694 -61.38782 
L 213.64045 -63.806011 
L 213.374409 -66.224202 
L 212.941172 -68.642393 
L 212.278655 -71.060584 
L 211.326559 -73.478775 
L 210.040699 -75.896967 
L 208.410433 -78.315158 
L 206.475475 -80.733349 
L 204.336604 -83.15154 
L 202.153947 -85.569731 
L 200.127996 -87.987922 
L 198.463357 -90.406113 
L 197.322682 -92.824305 
L 196.785111 -95.242496 
L 196.825129 -97.660687 
L 197.321494 -100.078878 
L 198.093888 -102.497069 
L 198.953491 -104.91526 
L 199.749071 -107.333451 
L 200.394549 -109.751643 
L 200.873548 -112.169834 
L 201.225459 -114.588025 
L 201.521635 -117.006216 
L 201.839727 -119.424407 
L 202.241428 -121.842598 
L 202.756849 -124.260789 
L 203.377812 -126.678981 
L 204.061546 -129.097172 
L 204.744171 -131.515363 
L 205.360431 -133.933554 
L 205.86367 -136.351745 
L 206.239716 -138.769936 
L 206.510353 -141.188127 
L 206.725548 -143.606319 
L 206.947146 -146.02451 
L 207.229379 -148.442701 
L 207.602471 -150.860892 
L 208.064654 -153.279083 
L 208.584888 -155.697274 
L 209.114529 -158.115465 
L 209.602785 -160.533657 
L 210.009807 -162.951848 
L 210.313199 -165.370039 
L 210.50743 -167.78823 
L 210.598951 -170.206421 
L 210.601162 -172.624612 
L 210.532271 -175.042803 
L 210.416466 -177.460995 
L 210.286186 -179.879186 
L 210.182003 -182.297377 
L 210.147565 -184.715568 
L 210.219805 -187.133759 
L 210.41782 -189.55195 
L 210.735479 -191.970141 
L 211.141708 -194.388333 
L 211.588941 -196.806524 
L 212.026375 -199.224715 
L 212.412687 -201.642906 
L 212.723711 -204.061097 
L 212.953479 -206.479288 
L 213.110016 -208.897479 
L 213.208872 -211.315671 
L 213.267212 -213.733862 
L 213.300006 -216.152053 
L 213.318464 -218.570244 
L 213.330075 -220.988435 
L 213.339364 -223.406626 
L 213.348744 -225.824817 
L 213.359168 -228.243009 
L 213.370552 -230.6612 
L 213.382098 -233.079391 
L 213.392635 -235.497582 
L 213.401018 -237.915773 
L 213.406528 -240.333964 
L 213.409121 -242.752155 
L 213.409442 -245.170347 
L 213.408557 -247.588538 
L 213.407514 -250.006729 
L 213.406935 -252.42492 
L 213.406814 -254.843111 
L 213.406637 -257.261302 
L 213.405785 -259.679493 
L 213.404079 -262.097685 
L 213.402261 -264.515876 
L 213.402217 -266.934067 
L 213.406832 -269.352258 
L 213.419454 -271.770449 
L 213.44308 -274.18864 
L 213.479454 -276.606831 
L 213.528361 -279.025023 
L 213.587365 -281.443214 
L 213.652156 -283.861405 
L 213.717433 -286.279596 
L 213.778058 -288.697787 
L 213.830112 -291.115978 
L 213.871505 -293.534169 
L 213.902024 -295.952361 
L 213.922902 -298.370552 
L 213.936162 -300.788743 
L 213.968283 -300.788743 
L 213.968283 -300.788743 
L 213.981542 -298.370552 
L 214.002421 -295.952361 
L 214.03294 -293.534169 
L 214.074333 -291.115978 
L 214.126387 -288.697787 
L 214.187012 -286.279596 
L 214.252288 -283.861405 
L 214.317079 -281.443214 
L 214.376084 -279.025023 
L 214.42499 -276.606831 
L 214.461365 -274.18864 
L 214.48499 -271.770449 
L 214.497612 -269.352258 
L 214.502227 -266.934067 
L 214.502183 -264.515876 
L 214.500366 -262.097685 
L 214.49866 -259.679493 
L 214.497808 -257.261302 
L 214.49763 -254.843111 
L 214.497509 -252.42492 
L 214.49693 -250.006729 
L 214.495888 -247.588538 
L 214.495002 -245.170347 
L 214.495324 -242.752155 
L 214.497917 -240.333964 
L 214.503426 -237.915773 
L 214.51181 -235.497582 
L 214.522347 -233.079391 
L 214.533892 -230.6612 
L 214.545276 -228.243009 
L 214.5557 -225.824817 
L 214.565081 -223.406626 
L 214.574369 -220.988435 
L 214.58598 -218.570244 
L 214.604438 -216.152053 
L 214.637232 -213.733862 
L 214.695573 -211.315671 
L 214.794428 -208.897479 
L 214.950965 -206.479288 
L 215.180733 -204.061097 
L 215.491757 -201.642906 
L 215.878069 -199.224715 
L 216.315504 -196.806524 
L 216.762736 -194.388333 
L 217.168965 -191.970141 
L 217.486625 -189.55195 
L 217.68464 -187.133759 
L 217.756879 -184.715568 
L 217.722441 -182.297377 
L 217.618259 -179.879186 
L 217.487979 -177.460995 
L 217.372174 -175.042803 
L 217.303282 -172.624612 
L 217.305494 -170.206421 
L 217.397015 -167.78823 
L 217.591245 -165.370039 
L 217.894637 -162.951848 
L 218.301659 -160.533657 
L 218.789916 -158.115465 
L 219.319557 -155.697274 
L 219.83979 -153.279083 
L 220.301973 -150.860892 
L 220.675066 -148.442701 
L 220.957298 -146.02451 
L 221.178896 -143.606319 
L 221.394091 -141.188127 
L 221.664729 -138.769936 
L 222.040774 -136.351745 
L 222.544013 -133.933554 
L 223.160273 -131.515363 
L 223.842899 -129.097172 
L 224.526632 -126.678981 
L 225.147595 -124.260789 
L 225.663016 -121.842598 
L 226.064718 -119.424407 
L 226.382809 -117.006216 
L 226.678985 -114.588025 
L 227.030896 -112.169834 
L 227.509896 -109.751643 
L 228.155373 -107.333451 
L 228.950954 -104.91526 
L 229.810556 -102.497069 
L 230.582951 -100.078878 
L 231.079315 -97.660687 
L 231.119333 -95.242496 
L 230.581763 -92.824305 
L 229.441088 -90.406113 
L 227.776448 -87.987922 
L 225.750498 -85.569731 
L 223.56784 -83.15154 
L 221.428969 -80.733349 
L 219.494011 -78.315158 
L 217.863745 -75.896967 
L 216.577885 -73.478775 
L 215.625789 -71.060584 
L 214.963273 -68.642393 
L 214.530035 -66.224202 
L 214.263994 -63.806011 
L 214.110751 -61.38782 
z
" style="stroke: #4c4c4c; stroke-width: 1.25"/>
    </defs>
    <g clip-path="url(#pbc052557a1)">
     <use xlink:href="#m4c07e98721" x="0" y="345.6" style="fill: #b7d2cd; stroke: #4c4c4c; stroke-width: 1.25"/>
    </g>
   </g>
   <g id="PolyCollection_5">
    <defs>
     <path id="m180d9336cd" d="M 256.968528 -77.360753 
L 256.771472 -77.360753 
L 256.675765 -79.008714 
L 256.509409 -80.656674 
L 256.237081 -82.304635 
L 255.815272 -83.952595 
L 255.194606 -85.600556 
L 254.324872 -87.248517 
L 253.164206 -88.896477 
L 251.693349 -90.544438 
L 249.933214 -92.192399 
L 247.959622 -93.840359 
L 245.905737 -95.48832 
L 243.944508 -97.136281 
L 242.251762 -98.784241 
L 240.961805 -100.432202 
L 240.133825 -102.080163 
L 239.743651 -103.728123 
L 239.702889 -105.376084 
L 239.894269 -107.024044 
L 240.206495 -108.672005 
L 240.556124 -110.319966 
L 240.893477 -111.967926 
L 241.197369 -113.615887 
L 241.465869 -115.263848 
L 241.70809 -116.911808 
L 241.938595 -118.559769 
L 242.173806 -120.20773 
L 242.429501 -121.85569 
L 242.71897 -123.503651 
L 243.05182 -125.151612 
L 243.433205 -126.799572 
L 243.863097 -128.447533 
L 244.335354 -130.095493 
L 244.836989 -131.743454 
L 245.348571 -133.391415 
L 245.846521 -135.039375 
L 246.30726 -136.687336 
L 246.712114 -138.335297 
L 247.051281 -139.983257 
L 247.325471 -141.631218 
L 247.544726 -143.279179 
L 247.72502 -144.927139 
L 247.883869 -146.5751 
L 248.03637 -148.223061 
L 248.192781 -149.871021 
L 248.358352 -151.518982 
L 248.535479 -153.166942 
L 248.727416 -154.814903 
L 248.94186 -156.462864 
L 249.192361 -158.110824 
L 249.496182 -159.758785 
L 249.86897 -161.406746 
L 250.318456 -163.054706 
L 250.840136 -164.702667 
L 251.416921 -166.350628 
L 252.022716 -167.998588 
L 252.62811 -169.646549 
L 253.205948 -171.29451 
L 253.735262 -172.94247 
L 254.203115 -174.590431 
L 254.604539 -176.238391 
L 254.940975 -177.886352 
L 255.217732 -179.534313 
L 255.441291 -181.182273 
L 255.617376 -182.830234 
L 255.750451 -184.478195 
L 255.844572 -186.126155 
L 255.904881 -187.774116 
L 255.938751 -189.422077 
L 255.955882 -191.070037 
L 255.967205 -192.717998 
L 255.983032 -194.365958 
L 256.01115 -196.013919 
L 256.055539 -197.66188 
L 256.116044 -199.30984 
L 256.188971 -200.957801 
L 256.268285 -202.605762 
L 256.346986 -204.253722 
L 256.41837 -205.901683 
L 256.477005 -207.549644 
L 256.519391 -209.197604 
L 256.544281 -210.845565 
L 256.552657 -212.493526 
L 256.547401 -214.141486 
L 256.53276 -215.789447 
L 256.513762 -217.437407 
L 256.495673 -219.085368 
L 256.483514 -220.733329 
L 256.481554 -222.381289 
L 256.492737 -224.02925 
L 256.518116 -225.677211 
L 256.556483 -227.325171 
L 256.604454 -228.973132 
L 256.657107 -230.621093 
L 256.709059 -232.269053 
L 256.755661 -233.917014 
L 256.793882 -235.564975 
L 256.822633 -237.212935 
L 256.842505 -238.860896 
L 256.855139 -240.508856 
L 256.884861 -240.508856 
L 256.884861 -240.508856 
L 256.897495 -238.860896 
L 256.917367 -237.212935 
L 256.946118 -235.564975 
L 256.984339 -233.917014 
L 257.030941 -232.269053 
L 257.082893 -230.621093 
L 257.135546 -228.973132 
L 257.183517 -227.325171 
L 257.221884 -225.677211 
L 257.247263 -224.02925 
L 257.258446 -222.381289 
L 257.256486 -220.733329 
L 257.244327 -219.085368 
L 257.226238 -217.437407 
L 257.20724 -215.789447 
L 257.192599 -214.141486 
L 257.187343 -212.493526 
L 257.195719 -210.845565 
L 257.220609 -209.197604 
L 257.262995 -207.549644 
L 257.32163 -205.901683 
L 257.393014 -204.253722 
L 257.471715 -202.605762 
L 257.551029 -200.957801 
L 257.623956 -199.30984 
L 257.684461 -197.66188 
L 257.72885 -196.013919 
L 257.756968 -194.365958 
L 257.772795 -192.717998 
L 257.784118 -191.070037 
L 257.801249 -189.422077 
L 257.835119 -187.774116 
L 257.895428 -186.126155 
L 257.989549 -184.478195 
L 258.122624 -182.830234 
L 258.298709 -181.182273 
L 258.522268 -179.534313 
L 258.799025 -177.886352 
L 259.135461 -176.238391 
L 259.536885 -174.590431 
L 260.004738 -172.94247 
L 260.534052 -171.29451 
L 261.11189 -169.646549 
L 261.717284 -167.998588 
L 262.323079 -166.350628 
L 262.899864 -164.702667 
L 263.421544 -163.054706 
L 263.87103 -161.406746 
L 264.243818 -159.758785 
L 264.547639 -158.110824 
L 264.79814 -156.462864 
L 265.012584 -154.814903 
L 265.204521 -153.166942 
L 265.381648 -151.518982 
L 265.547219 -149.871021 
L 265.70363 -148.223061 
L 265.856131 -146.5751 
L 266.01498 -144.927139 
L 266.195274 -143.279179 
L 266.414529 -141.631218 
L 266.688719 -139.983257 
L 267.027886 -138.335297 
L 267.43274 -136.687336 
L 267.893479 -135.039375 
L 268.391429 -133.391415 
L 268.903011 -131.743454 
L 269.404646 -130.095493 
L 269.876903 -128.447533 
L 270.306795 -126.799572 
L 270.68818 -125.151612 
L 271.02103 -123.503651 
L 271.310499 -121.85569 
L 271.566194 -120.20773 
L 271.801405 -118.559769 
L 272.03191 -116.911808 
L 272.274131 -115.263848 
L 272.542631 -113.615887 
L 272.846523 -111.967926 
L 273.183876 -110.319966 
L 273.533505 -108.672005 
L 273.845731 -107.024044 
L 274.037111 -105.376084 
L 273.996349 -103.728123 
L 273.606175 -102.080163 
L 272.778195 -100.432202 
L 271.488238 -98.784241 
L 269.795492 -97.136281 
L 267.834263 -95.48832 
L 265.780378 -93.840359 
L 263.806786 -92.192399 
L 262.046651 -90.544438 
L 260.575794 -88.896477 
L 259.415128 -87.248517 
L 258.545394 -85.600556 
L 257.924728 -83.952595 
L 257.502919 -82.304635 
L 257.230591 -80.656674 
L 257.064235 -79.008714 
L 256.968528 -77.360753 
z
" style="stroke: #4c4c4c; stroke-width: 1.25"/>
    </defs>
    <g clip-path="url(#pbc052557a1)">
     <use xlink:href="#m180d9336cd" x="0" y="345.6" style="fill: #a6c8c1; stroke: #4c4c4c; stroke-width: 1.25"/>
    </g>
   </g>
   <g id="PolyCollection_6">
    <defs>
     <path id="m180dde0a18" d="M 299.935568 -73.372261 
L 299.639987 -73.372261 
L 299.53581 -74.811599 
L 299.372403 -76.250937 
L 299.125544 -77.690275 
L 298.766512 -79.129613 
L 298.264054 -80.568951 
L 297.587869 -82.00829 
L 296.713543 -83.447628 
L 295.62841 -84.886966 
L 294.33738 -86.326304 
L 292.867336 -87.765642 
L 291.268666 -89.20498 
L 289.612792 -90.644318 
L 287.985323 -92.083656 
L 286.475531 -93.522994 
L 285.16392 -94.962332 
L 284.110393 -96.40167 
L 283.345623 -97.841008 
L 282.867613 -99.280346 
L 282.644178 -100.719684 
L 282.620667 -102.159022 
L 282.730991 -103.59836 
L 282.909392 -105.037698 
L 283.10047 -106.477036 
L 283.265737 -107.916374 
L 283.386003 -109.355712 
L 283.45996 -110.79505 
L 283.500072 -112.234388 
L 283.527177 -113.673726 
L 283.565093 -115.113064 
L 283.636157 -116.552402 
L 283.758148 -117.99174 
L 283.942627 -119.431078 
L 284.194467 -120.870416 
L 284.512221 -122.309754 
L 284.889002 -123.749092 
L 285.313625 -125.18843 
L 285.771896 -126.627768 
L 286.247957 -128.067106 
L 286.725681 -129.506444 
L 287.190016 -130.945782 
L 287.62819 -132.385121 
L 288.030611 -133.824459 
L 288.39132 -135.263797 
L 288.707942 -136.703135 
L 288.981174 -138.142473 
L 289.21398 -139.581811 
L 289.410756 -141.021149 
L 289.576684 -142.460487 
L 289.717439 -143.899825 
L 289.839213 -145.339163 
L 289.948889 -146.778501 
L 290.054097 -148.217839 
L 290.162901 -149.657177 
L 290.283013 -151.096515 
L 290.42065 -152.535853 
L 290.579305 -153.975191 
L 290.758833 -155.414529 
L 290.955174 -156.853867 
L 291.160884 -158.293205 
L 291.36637 -159.732543 
L 291.561552 -161.171881 
L 291.737533 -162.611219 
L 291.887897 -164.050557 
L 292.009366 -165.489895 
L 292.101759 -166.929233 
L 292.167369 -168.368571 
L 292.210002 -169.807909 
L 292.233995 -171.247247 
L 292.243478 -172.686585 
L 292.242085 -174.125923 
L 292.233135 -175.565261 
L 292.220191 -177.004599 
L 292.207733 -178.443937 
L 292.201643 -179.883275 
L 292.209262 -181.322613 
L 292.238902 -182.761951 
L 292.298964 -184.20129 
L 292.396934 -185.640628 
L 292.538619 -187.079966 
L 292.727876 -188.519304 
L 292.966854 -189.958642 
L 293.256518 -191.39798 
L 293.597073 -192.837318 
L 293.987936 -194.276656 
L 294.427118 -195.715994 
L 294.910167 -197.155332 
L 295.429119 -198.59467 
L 295.971939 -200.034008 
L 296.522864 -201.473346 
L 297.06374 -202.912684 
L 297.576105 -204.352022 
L 298.043534 -205.79136 
L 298.453664 -207.230698 
L 298.799448 -208.670036 
L 299.079423 -210.109374 
L 299.297053 -211.548712 
L 299.459433 -212.98805 
L 299.575723 -214.427388 
L 299.655659 -215.866726 
L 299.919897 -215.866726 
L 299.919897 -215.866726 
L 299.999833 -214.427388 
L 300.116122 -212.98805 
L 300.278503 -211.548712 
L 300.496133 -210.109374 
L 300.776107 -208.670036 
L 301.121891 -207.230698 
L 301.532021 -205.79136 
L 301.999451 -204.352022 
L 302.511816 -202.912684 
L 303.052692 -201.473346 
L 303.603617 -200.034008 
L 304.146436 -198.59467 
L 304.665388 -197.155332 
L 305.148438 -195.715994 
L 305.587619 -194.276656 
L 305.978482 -192.837318 
L 306.319037 -191.39798 
L 306.608702 -189.958642 
L 306.84768 -188.519304 
L 307.036937 -187.079966 
L 307.178622 -185.640628 
L 307.276592 -184.20129 
L 307.336654 -182.761951 
L 307.366294 -181.322613 
L 307.373912 -179.883275 
L 307.367823 -178.443937 
L 307.355365 -177.004599 
L 307.342421 -175.565261 
L 307.33347 -174.125923 
L 307.332077 -172.686585 
L 307.341561 -171.247247 
L 307.365554 -169.807909 
L 307.408187 -168.368571 
L 307.473796 -166.929233 
L 307.566189 -165.489895 
L 307.687658 -164.050557 
L 307.838023 -162.611219 
L 308.014004 -161.171881 
L 308.209185 -159.732543 
L 308.414671 -158.293205 
L 308.620381 -156.853867 
L 308.816723 -155.414529 
L 308.99625 -153.975191 
L 309.154905 -152.535853 
L 309.292542 -151.096515 
L 309.412655 -149.657177 
L 309.521458 -148.217839 
L 309.626667 -146.778501 
L 309.736343 -145.339163 
L 309.858117 -143.899825 
L 309.998872 -142.460487 
L 310.1648 -141.021149 
L 310.361576 -139.581811 
L 310.594382 -138.142473 
L 310.867613 -136.703135 
L 311.184236 -135.263797 
L 311.544945 -133.824459 
L 311.947365 -132.385121 
L 312.38554 -130.945782 
L 312.849874 -129.506444 
L 313.327598 -128.067106 
L 313.80366 -126.627768 
L 314.26193 -125.18843 
L 314.686554 -123.749092 
L 315.063334 -122.309754 
L 315.381089 -120.870416 
L 315.632929 -119.431078 
L 315.817408 -117.99174 
L 315.939399 -116.552402 
L 316.010463 -115.113064 
L 316.048378 -113.673726 
L 316.075483 -112.234388 
L 316.115596 -110.79505 
L 316.189553 -109.355712 
L 316.309819 -107.916374 
L 316.475086 -106.477036 
L 316.666164 -105.037698 
L 316.844564 -103.59836 
L 316.954889 -102.159022 
L 316.931378 -100.719684 
L 316.707943 -99.280346 
L 316.229933 -97.841008 
L 315.465163 -96.40167 
L 314.411635 -94.962332 
L 313.100024 -93.522994 
L 311.590233 -92.083656 
L 309.962764 -90.644318 
L 308.30689 -89.20498 
L 306.70822 -87.765642 
L 305.238175 -86.326304 
L 303.947145 -84.886966 
L 302.862013 -83.447628 
L 301.987686 -82.00829 
L 301.311502 -80.568951 
L 300.809044 -79.129613 
L 300.450012 -77.690275 
L 300.203153 -76.250937 
L 300.039746 -74.811599 
L 299.935568 -73.372261 
z
" style="stroke: #4c4c4c; stroke-width: 1.25"/>
    </defs>
    <g clip-path="url(#pbc052557a1)">
     <use xlink:href="#m180dde0a18" x="0" y="345.6" style="fill: #94beb5; stroke: #4c4c4c; stroke-width: 1.25"/>
    </g>
   </g>
   <g id="PolyCollection_7">
    <defs>
     <path id="mf04f665511" d="M 342.771417 -64.938885 
L 342.639695 -64.938885 
L 342.572596 -66.965331 
L 342.450785 -68.991778 
L 342.241794 -71.018224 
L 341.902913 -73.04467 
L 341.383691 -75.071116 
L 340.632404 -77.097562 
L 339.606783 -79.124008 
L 338.287701 -81.150455 
L 336.692574 -83.176901 
L 334.883713 -85.203347 
L 332.966832 -87.229793 
L 331.0772 -89.256239 
L 329.355145 -91.282686 
L 327.917265 -93.309132 
L 326.83244 -95.335578 
L 326.110713 -97.362024 
L 325.708491 -99.38847 
L 325.54728 -101.414917 
L 325.538444 -103.441363 
L 325.605351 -105.467809 
L 325.696755 -107.494255 
L 325.789676 -109.520701 
L 325.883973 -111.547148 
L 325.992832 -113.573594 
L 326.133344 -115.60004 
L 326.319869 -117.626486 
L 326.561037 -119.652932 
L 326.859617 -121.679378 
L 327.21374 -123.705825 
L 327.617994 -125.732271 
L 328.063756 -127.758717 
L 328.539128 -129.785163 
L 329.029436 -131.811609 
L 329.519096 -133.838056 
L 329.994779 -135.864502 
L 330.448823 -137.890948 
L 330.881362 -139.917394 
L 331.300051 -141.94384 
L 331.717326 -143.970287 
L 332.146293 -145.996733 
L 332.596895 -148.023179 
L 333.07369 -150.049625 
L 333.575648 -152.076071 
L 334.097418 -154.102518 
L 334.631089 -156.128964 
L 335.167677 -158.15541 
L 335.69814 -160.181856 
L 336.214099 -162.208302 
L 336.708471 -164.234749 
L 337.175937 -166.261195 
L 337.612976 -168.287641 
L 338.017311 -170.314087 
L 338.387014 -172.340533 
L 338.71981 -174.366979 
L 339.013099 -176.393426 
L 339.264737 -178.419872 
L 339.474169 -180.446318 
L 339.643235 -182.472764 
L 339.776214 -184.49921 
L 339.8791 -186.525657 
L 339.958483 -188.552103 
L 340.020556 -190.578549 
L 340.070582 -192.604995 
L 340.112908 -194.631441 
L 340.151353 -196.657888 
L 340.189738 -198.684334 
L 340.232226 -200.71078 
L 340.28327 -202.737226 
L 340.347025 -204.763672 
L 340.426352 -206.790119 
L 340.521741 -208.816565 
L 340.630674 -210.843011 
L 340.747853 -212.869457 
L 340.866415 -214.895903 
L 340.979823 -216.922349 
L 341.08376 -218.948796 
L 341.177293 -220.975242 
L 341.262821 -223.001688 
L 341.344814 -225.028134 
L 341.427819 -227.05458 
L 341.514536 -229.081027 
L 341.604739 -231.107473 
L 341.695488 -233.133919 
L 341.782531 -235.160365 
L 341.862282 -237.186811 
L 341.933497 -239.213258 
L 341.997906 -241.239704 
L 342.059526 -243.26615 
L 342.122972 -245.292596 
L 342.191549 -247.319042 
L 342.265912 -249.345489 
L 342.343823 -251.371935 
L 342.420978 -253.398381 
L 342.492458 -255.424827 
L 342.554168 -257.451273 
L 342.603768 -259.47772 
L 342.640898 -261.504166 
L 342.666805 -263.530612 
L 342.683667 -265.557058 
L 342.727444 -265.557058 
L 342.727444 -265.557058 
L 342.744307 -263.530612 
L 342.770213 -261.504166 
L 342.807343 -259.47772 
L 342.856943 -257.451273 
L 342.918653 -255.424827 
L 342.990133 -253.398381 
L 343.067288 -251.371935 
L 343.145199 -249.345489 
L 343.219562 -247.319042 
L 343.288139 -245.292596 
L 343.351585 -243.26615 
L 343.413205 -241.239704 
L 343.477615 -239.213258 
L 343.54883 -237.186811 
L 343.62858 -235.160365 
L 343.715624 -233.133919 
L 343.806372 -231.107473 
L 343.896575 -229.081027 
L 343.983292 -227.05458 
L 344.066297 -225.028134 
L 344.14829 -223.001688 
L 344.233818 -220.975242 
L 344.327351 -218.948796 
L 344.431288 -216.922349 
L 344.544696 -214.895903 
L 344.663258 -212.869457 
L 344.780437 -210.843011 
L 344.88937 -208.816565 
L 344.984759 -206.790119 
L 345.064086 -204.763672 
L 345.127841 -202.737226 
L 345.178885 -200.71078 
L 345.221373 -198.684334 
L 345.259758 -196.657888 
L 345.298204 -194.631441 
L 345.340529 -192.604995 
L 345.390556 -190.578549 
L 345.452628 -188.552103 
L 345.532011 -186.525657 
L 345.634897 -184.49921 
L 345.767876 -182.472764 
L 345.936942 -180.446318 
L 346.146374 -178.419872 
L 346.398013 -176.393426 
L 346.691301 -174.366979 
L 347.024098 -172.340533 
L 347.3938 -170.314087 
L 347.798135 -168.287641 
L 348.235174 -166.261195 
L 348.70264 -164.234749 
L 349.197012 -162.208302 
L 349.712971 -160.181856 
L 350.243434 -158.15541 
L 350.780022 -156.128964 
L 351.313693 -154.102518 
L 351.835463 -152.076071 
L 352.337421 -150.049625 
L 352.814216 -148.023179 
L 353.264818 -145.996733 
L 353.693785 -143.970287 
L 354.11106 -141.94384 
L 354.529749 -139.917394 
L 354.962288 -137.890948 
L 355.416332 -135.864502 
L 355.892015 -133.838056 
L 356.381675 -131.811609 
L 356.871983 -129.785163 
L 357.347355 -127.758717 
L 357.793117 -125.732271 
L 358.197371 -123.705825 
L 358.551494 -121.679378 
L 358.850074 -119.652932 
L 359.091242 -117.626486 
L 359.277768 -115.60004 
L 359.418279 -113.573594 
L 359.527138 -111.547148 
L 359.621435 -109.520701 
L 359.714356 -107.494255 
L 359.80576 -105.467809 
L 359.872667 -103.441363 
L 359.863831 -101.414917 
L 359.70262 -99.38847 
L 359.300398 -97.362024 
L 358.578671 -95.335578 
L 357.493846 -93.309132 
L 356.055967 -91.282686 
L 354.333911 -89.256239 
L 352.444279 -87.229793 
L 350.527398 -85.203347 
L 348.718537 -83.176901 
L 347.12341 -81.150455 
L 345.804328 -79.124008 
L 344.778707 -77.097562 
L 344.027421 -75.071116 
L 343.508198 -73.04467 
L 343.169317 -71.018224 
L 342.960326 -68.991778 
L 342.838515 -66.965331 
L 342.771417 -64.938885 
z
" style="stroke: #4c4c4c; stroke-width: 1.25"/>
    </defs>
    <g clip-path="url(#pbc052557a1)">
     <use xlink:href="#mf04f665511" x="0" y="345.6" style="fill: #82b4aa; stroke: #4c4c4c; stroke-width: 1.25"/>
    </g>
   </g>
   <g id="PolyCollection_8">
    <defs>
     <path id="mcdd1937e9d" d="M 385.85245 -79.650549 
L 385.394217 -79.650549 
L 385.18866 -81.586833 
L 384.844838 -83.523117 
L 384.305546 -85.459402 
L 383.512338 -87.395686 
L 382.418625 -89.33197 
L 381.005768 -91.268254 
L 379.297852 -93.204539 
L 377.369603 -95.140823 
L 375.342786 -97.077107 
L 373.369547 -99.013391 
L 371.605751 -100.949676 
L 370.181452 -102.88596 
L 369.177311 -104.822244 
L 368.613912 -106.758528 
L 368.456222 -108.694813 
L 368.629986 -110.631097 
L 369.043187 -112.567381 
L 369.605372 -114.503665 
L 370.240255 -116.43995 
L 370.890731 -118.376234 
L 371.518351 -120.312518 
L 372.100166 -122.248802 
L 372.625177 -124.185087 
L 373.0913 -126.121371 
L 373.502801 -128.057655 
L 373.867895 -129.993939 
L 374.196418 -131.930224 
L 374.497701 -133.866508 
L 374.778976 -135.802792 
L 375.044548 -137.739076 
L 375.295847 -139.675361 
L 375.532239 -141.611645 
L 375.752262 -143.547929 
L 375.95484 -145.484213 
L 376.140122 -147.420498 
L 376.309879 -149.356782 
L 376.467667 -151.293066 
L 376.619087 -153.22935 
L 376.77224 -155.165635 
L 376.938014 -157.101919 
L 377.129618 -159.038203 
L 377.360883 -160.974487 
L 377.64349 -162.910772 
L 377.983949 -164.847056 
L 378.381495 -166.78334 
L 378.827744 -168.719624 
L 379.308181 -170.655909 
L 379.804852 -172.592193 
L 380.299335 -174.528477 
L 380.77524 -176.464761 
L 381.219934 -178.401046 
L 381.625453 -180.33733 
L 381.988652 -182.273614 
L 382.310589 -184.209898 
L 382.59522 -186.146183 
L 382.847667 -188.082467 
L 383.072593 -190.018751 
L 383.273169 -191.955035 
L 383.450898 -193.89132 
L 383.60616 -195.827604 
L 383.739045 -197.763888 
L 383.850062 -199.700172 
L 383.940474 -201.636457 
L 384.012265 -203.572741 
L 384.067897 -205.509025 
L 384.109994 -207.445309 
L 384.141048 -209.381594 
L 384.163246 -211.317878 
L 384.178486 -213.254162 
L 384.188659 -215.190446 
L 384.196179 -217.126731 
L 384.20457 -219.063015 
L 384.218789 -220.999299 
L 384.244943 -222.935583 
L 384.289234 -224.871868 
L 384.356302 -226.808152 
L 384.447504 -228.744436 
L 384.559824 -230.68072 
L 384.685987 -232.617005 
L 384.815865 -234.553289 
L 384.938743 -236.489573 
L 385.045644 -238.425857 
L 385.130966 -240.362141 
L 385.193057 -242.298426 
L 385.233823 -244.23471 
L 385.257774 -246.170994 
L 385.270911 -248.107278 
L 385.279686 -250.043563 
L 385.290058 -251.979847 
L 385.30662 -253.916131 
L 385.331891 -255.852415 
L 385.36595 -257.7887 
L 385.40662 -259.724984 
L 385.450206 -261.661268 
L 385.492569 -263.597552 
L 385.530197 -265.533837 
L 385.5609 -267.470121 
L 385.584001 -269.406405 
L 385.600072 -271.342689 
L 385.646595 -271.342689 
L 385.646595 -271.342689 
L 385.662665 -269.406405 
L 385.685766 -267.470121 
L 385.716469 -265.533837 
L 385.754098 -263.597552 
L 385.796461 -261.661268 
L 385.840046 -259.724984 
L 385.880717 -257.7887 
L 385.914776 -255.852415 
L 385.940046 -253.916131 
L 385.956608 -251.979847 
L 385.96698 -250.043563 
L 385.975756 -248.107278 
L 385.988893 -246.170994 
L 386.012844 -244.23471 
L 386.05361 -242.298426 
L 386.115701 -240.362141 
L 386.201023 -238.425857 
L 386.307924 -236.489573 
L 386.430802 -234.553289 
L 386.56068 -232.617005 
L 386.686842 -230.68072 
L 386.799162 -228.744436 
L 386.890364 -226.808152 
L 386.957433 -224.871868 
L 387.001724 -222.935583 
L 387.027878 -220.999299 
L 387.042096 -219.063015 
L 387.050487 -217.126731 
L 387.058008 -215.190446 
L 387.068181 -213.254162 
L 387.083421 -211.317878 
L 387.105619 -209.381594 
L 387.136673 -207.445309 
L 387.178769 -205.509025 
L 387.234402 -203.572741 
L 387.306193 -201.636457 
L 387.396604 -199.700172 
L 387.507622 -197.763888 
L 387.640507 -195.827604 
L 387.795768 -193.89132 
L 387.973498 -191.955035 
L 388.174074 -190.018751 
L 388.399 -188.082467 
L 388.651447 -186.146183 
L 388.936077 -184.209898 
L 389.258015 -182.273614 
L 389.621214 -180.33733 
L 390.026733 -178.401046 
L 390.471427 -176.464761 
L 390.947332 -174.528477 
L 391.441814 -172.592193 
L 391.938486 -170.655909 
L 392.418922 -168.719624 
L 392.865172 -166.78334 
L 393.262718 -164.847056 
L 393.603176 -162.910772 
L 393.885783 -160.974487 
L 394.117049 -159.038203 
L 394.308652 -157.101919 
L 394.474426 -155.165635 
L 394.627579 -153.22935 
L 394.779 -151.293066 
L 394.936787 -149.356782 
L 395.106545 -147.420498 
L 395.291827 -145.484213 
L 395.494405 -143.547929 
L 395.714428 -141.611645 
L 395.95082 -139.675361 
L 396.202118 -137.739076 
L 396.46769 -135.802792 
L 396.748965 -133.866508 
L 397.050249 -131.930224 
L 397.378771 -129.993939 
L 397.743866 -128.057655 
L 398.155366 -126.121371 
L 398.62149 -124.185087 
L 399.146501 -122.248802 
L 399.728315 -120.312518 
L 400.355935 -118.376234 
L 401.006412 -116.43995 
L 401.641294 -114.503665 
L 402.20348 -112.567381 
L 402.61668 -110.631097 
L 402.790444 -108.694813 
L 402.632755 -106.758528 
L 402.069356 -104.822244 
L 401.065215 -102.88596 
L 399.640916 -100.949676 
L 397.877119 -99.013391 
L 395.90388 -97.077107 
L 393.877063 -95.140823 
L 391.948815 -93.204539 
L 390.240899 -91.268254 
L 388.828042 -89.33197 
L 387.734328 -87.395686 
L 386.94112 -85.459402 
L 386.401828 -83.523117 
L 386.058007 -81.586833 
L 385.85245 -79.650549 
z
" style="stroke: #4c4c4c; stroke-width: 1.25"/>
    </defs>
    <g clip-path="url(#pbc052557a1)">
     <use xlink:href="#mcdd1937e9d" x="0" y="345.6" style="fill: #71a99e; stroke: #4c4c4c; stroke-width: 1.25"/>
    </g>
   </g>
   <g id="PolyCollection_9">
    <defs>
     <path id="m0ef335e1ca" d="M 428.669133 -63.143481 
L 428.41309 -63.143481 
L 428.296601 -65.3397 
L 428.097196 -67.535918 
L 427.774393 -69.732137 
L 427.280327 -71.928355 
L 426.565719 -74.124574 
L 425.589759 -76.320793 
L 424.332685 -78.517011 
L 422.808142 -80.71323 
L 421.071033 -82.909448 
L 419.21665 -85.105667 
L 417.368734 -87.301885 
L 415.657819 -89.498104 
L 414.195275 -91.694322 
L 413.05101 -93.890541 
L 412.24233 -96.08676 
L 411.737589 -98.282978 
L 411.472713 -100.479197 
L 411.374 -102.675415 
L 411.378904 -104.871634 
L 411.448451 -107.067852 
L 411.569054 -109.264071 
L 411.745718 -111.460289 
L 411.991069 -113.656508 
L 412.314864 -115.852726 
L 412.71714 -118.048945 
L 413.186103 -120.245164 
L 413.700155 -122.441382 
L 414.232428 -124.637601 
L 414.756028 -126.833819 
L 415.248459 -129.030038 
L 415.694346 -131.226256 
L 416.086262 -133.422475 
L 416.424055 -135.618693 
L 416.713439 -137.814912 
L 416.964562 -140.011131 
L 417.190905 -142.207349 
L 417.408306 -144.403568 
L 417.63359 -146.599786 
L 417.882344 -148.796005 
L 418.166016 -150.992223 
L 418.489221 -153.188442 
L 418.848501 -155.38466 
L 419.233428 -157.580879 
L 419.629964 -159.777098 
L 420.024952 -161.973316 
L 420.410003 -164.169535 
L 420.78325 -166.365753 
L 421.148342 -168.561972 
L 421.511166 -170.75819 
L 421.875746 -172.954409 
L 422.241048 -175.150627 
L 422.600066 -177.346846 
L 422.941632 -179.543064 
L 423.254275 -181.739283 
L 423.530611 -183.935502 
L 423.770527 -186.13172 
L 423.981836 -188.327939 
L 424.178098 -190.524157 
L 424.374357 -192.720376 
L 424.58233 -194.916594 
L 424.80678 -197.112813 
L 425.044288 -199.309031 
L 425.284721 -201.50525 
L 425.514717 -203.701469 
L 425.72187 -205.897687 
L 425.898288 -208.093906 
L 426.042615 -210.290124 
L 426.160184 -212.486343 
L 426.261501 -214.682561 
L 426.359539 -216.87878 
L 426.466479 -219.074998 
L 426.590672 -221.271217 
L 426.734598 -223.467436 
L 426.894422 -225.663654 
L 427.061284 -227.859873 
L 427.223871 -230.056091 
L 427.371348 -232.25231 
L 427.495672 -234.448528 
L 427.592653 -236.644747 
L 427.661733 -238.840965 
L 427.704991 -241.037184 
L 427.726074 -243.233402 
L 427.729615 -245.429621 
L 427.721233 -247.62584 
L 427.7078 -249.822058 
L 427.697426 -252.018277 
L 427.698723 -254.214495 
L 427.719323 -256.410714 
L 427.764065 -258.606932 
L 427.833572 -260.803151 
L 427.923842 -262.999369 
L 428.027126 -265.195588 
L 428.133797 -267.391807 
L 428.23458 -269.588025 
L 428.322395 -271.784244 
L 428.393335 -273.980462 
L 428.446656 -276.176681 
L 428.484043 -278.372899 
L 428.50854 -280.569118 
L 428.573682 -280.569118 
L 428.573682 -280.569118 
L 428.59818 -278.372899 
L 428.635566 -276.176681 
L 428.688888 -273.980462 
L 428.759827 -271.784244 
L 428.847642 -269.588025 
L 428.948425 -267.391807 
L 429.055096 -265.195588 
L 429.15838 -262.999369 
L 429.24865 -260.803151 
L 429.318157 -258.606932 
L 429.362899 -256.410714 
L 429.3835 -254.214495 
L 429.384797 -252.018277 
L 429.374422 -249.822058 
L 429.360989 -247.62584 
L 429.352607 -245.429621 
L 429.356148 -243.233402 
L 429.377232 -241.037184 
L 429.420489 -238.840965 
L 429.48957 -236.644747 
L 429.586551 -234.448528 
L 429.710875 -232.25231 
L 429.858352 -230.056091 
L 430.020938 -227.859873 
L 430.1878 -225.663654 
L 430.347624 -223.467436 
L 430.49155 -221.271217 
L 430.615743 -219.074998 
L 430.722683 -216.87878 
L 430.820721 -214.682561 
L 430.922038 -212.486343 
L 431.039607 -210.290124 
L 431.183934 -208.093906 
L 431.360353 -205.897687 
L 431.567505 -203.701469 
L 431.797501 -201.50525 
L 432.037935 -199.309031 
L 432.275442 -197.112813 
L 432.499892 -194.916594 
L 432.707865 -192.720376 
L 432.904124 -190.524157 
L 433.100387 -188.327939 
L 433.311696 -186.13172 
L 433.551611 -183.935502 
L 433.827948 -181.739283 
L 434.14059 -179.543064 
L 434.482156 -177.346846 
L 434.841174 -175.150627 
L 435.206476 -172.954409 
L 435.571056 -170.75819 
L 435.93388 -168.561972 
L 436.298972 -166.365753 
L 436.67222 -164.169535 
L 437.05727 -161.973316 
L 437.452258 -159.777098 
L 437.848794 -157.580879 
L 438.233721 -155.38466 
L 438.593002 -153.188442 
L 438.916206 -150.992223 
L 439.199878 -148.796005 
L 439.448632 -146.599786 
L 439.673916 -144.403568 
L 439.891318 -142.207349 
L 440.11766 -140.011131 
L 440.368784 -137.814912 
L 440.658168 -135.618693 
L 440.99596 -133.422475 
L 441.387876 -131.226256 
L 441.833763 -129.030038 
L 442.326194 -126.833819 
L 442.849794 -124.637601 
L 443.382067 -122.441382 
L 443.896119 -120.245164 
L 444.365083 -118.048945 
L 444.767358 -115.852726 
L 445.091153 -113.656508 
L 445.336504 -111.460289 
L 445.513168 -109.264071 
L 445.633771 -107.067852 
L 445.703318 -104.871634 
L 445.708222 -102.675415 
L 445.609509 -100.479197 
L 445.344634 -98.282978 
L 444.839892 -96.08676 
L 444.031212 -93.890541 
L 442.886947 -91.694322 
L 441.424403 -89.498104 
L 439.713489 -87.301885 
L 437.865572 -85.105667 
L 436.011189 -82.909448 
L 434.274081 -80.71323 
L 432.749537 -78.517011 
L 431.492463 -76.320793 
L 430.516503 -74.124574 
L 429.801896 -71.928355 
L 429.30783 -69.732137 
L 428.985027 -67.535918 
L 428.785621 -65.3397 
L 428.669133 -63.143481 
z
" style="stroke: #4c4c4c; stroke-width: 1.25"/>
    </defs>
    <g clip-path="url(#pbc052557a1)">
     <use xlink:href="#m0ef335e1ca" x="0" y="345.6" style="fill: #609f93; stroke: #4c4c4c; stroke-width: 1.25"/>
    </g>
   </g>
   <g id="matplotlib.axis_1">
    <g id="xtick_1">
     <g id="line2d_1">
      <defs>
       <path id="mda996759e7" d="M 0 0 
L 0 3.5 
" style="stroke: #000000; stroke-width: 0.8"/>
      </defs>
      <g>
       <use xlink:href="#mda996759e7" x="85.198889" y="297.88" style="stroke: #000000; stroke-width: 0.8"/>
      </g>
     </g>
     <g id="text_1">
      <!-- 1 -->
      <g transform="translate(81.381389 313.998125) scale(0.12 -0.12)">
       <defs>
        <path id="DejaVuSans-31" d="M 794 531 
L 1825 531 
L 1825 4091 
L 703 3866 
L 703 4441 
L 1819 4666 
L 2450 4666 
L 2450 531 
L 3481 531 
L 3481 0 
L 794 0 
L 794 531 
z
" transform="scale(0.015625)"/>
       </defs>
       <use xlink:href="#DejaVuSans-31"/>
      </g>
     </g>
    </g>
    <g id="xtick_2">
     <g id="line2d_2">
      <g>
       <use xlink:href="#mda996759e7" x="128.116667" y="297.88" style="stroke: #000000; stroke-width: 0.8"/>
      </g>
     </g>
     <g id="text_2">
      <!-- 2 -->
      <g transform="translate(124.299167 313.998125) scale(0.12 -0.12)">
       <defs>
        <path id="DejaVuSans-32" d="M 1228 531 
L 3431 531 
L 3431 0 
L 469 0 
L 469 531 
Q 828 903 1448 1529 
Q 2069 2156 2228 2338 
Q 2531 2678 2651 2914 
Q 2772 3150 2772 3378 
Q 2772 3750 2511 3984 
Q 2250 4219 1831 4219 
Q 1534 4219 1204 4116 
Q 875 4013 500 3803 
L 500 4441 
Q 881 4594 1212 4672 
Q 1544 4750 1819 4750 
Q 2544 4750 2975 4387 
Q 3406 4025 3406 3419 
Q 3406 3131 3298 2873 
Q 3191 2616 2906 2266 
Q 2828 2175 2409 1742 
Q 1991 1309 1228 531 
z
" transform="scale(0.015625)"/>
       </defs>
       <use xlink:href="#DejaVuSans-32"/>
      </g>
     </g>
    </g>
    <g id="xtick_3">
     <g id="line2d_3">
      <g>
       <use xlink:href="#mda996759e7" x="171.034444" y="297.88" style="stroke: #000000; stroke-width: 0.8"/>
      </g>
     </g>
     <g id="text_3">
      <!-- 3 -->
      <g transform="translate(167.216944 313.998125) scale(0.12 -0.12)">
       <defs>
        <path id="DejaVuSans-33" d="M 2597 2516 
Q 3050 2419 3304 2112 
Q 3559 1806 3559 1356 
Q 3559 666 3084 287 
Q 2609 -91 1734 -91 
Q 1441 -91 1130 -33 
Q 819 25 488 141 
L 488 750 
Q 750 597 1062 519 
Q 1375 441 1716 441 
Q 2309 441 2620 675 
Q 2931 909 2931 1356 
Q 2931 1769 2642 2001 
Q 2353 2234 1838 2234 
L 1294 2234 
L 1294 2753 
L 1863 2753 
Q 2328 2753 2575 2939 
Q 2822 3125 2822 3475 
Q 2822 3834 2567 4026 
Q 2313 4219 1838 4219 
Q 1578 4219 1281 4162 
Q 984 4106 628 3988 
L 628 4550 
Q 988 4650 1302 4700 
Q 1616 4750 1894 4750 
Q 2613 4750 3031 4423 
Q 3450 4097 3450 3541 
Q 3450 3153 3228 2886 
Q 3006 2619 2597 2516 
z
" transform="scale(0.015625)"/>
       </defs>
       <use xlink:href="#DejaVuSans-33"/>
      </g>
     </g>
    </g>
    <g id="xtick_4">
     <g id="line2d_4">
      <g>
       <use xlink:href="#mda996759e7" x="213.952222" y="297.88" style="stroke: #000000; stroke-width: 0.8"/>
      </g>
     </g>
     <g id="text_4">
      <!-- 4 -->
      <g transform="translate(210.134722 313.998125) scale(0.12 -0.12)">
       <defs>
        <path id="DejaVuSans-34" d="M 2419 4116 
L 825 1625 
L 2419 1625 
L 2419 4116 
z
M 2253 4666 
L 3047 4666 
L 3047 1625 
L 3713 1625 
L 3713 1100 
L 3047 1100 
L 3047 0 
L 2419 0 
L 2419 1100 
L 313 1100 
L 313 1709 
L 2253 4666 
z
" transform="scale(0.015625)"/>
       </defs>
       <use xlink:href="#DejaVuSans-34"/>
      </g>
     </g>
    </g>
    <g id="xtick_5">
     <g id="line2d_5">
      <g>
       <use xlink:href="#mda996759e7" x="256.87" y="297.88" style="stroke: #000000; stroke-width: 0.8"/>
      </g>
     </g>
     <g id="text_5">
      <!-- 5 -->
      <g transform="translate(253.0525 313.998125) scale(0.12 -0.12)">
       <defs>
        <path id="DejaVuSans-35" d="M 691 4666 
L 3169 4666 
L 3169 4134 
L 1269 4134 
L 1269 2991 
Q 1406 3038 1543 3061 
Q 1681 3084 1819 3084 
Q 2600 3084 3056 2656 
Q 3513 2228 3513 1497 
Q 3513 744 3044 326 
Q 2575 -91 1722 -91 
Q 1428 -91 1123 -41 
Q 819 9 494 109 
L 494 744 
Q 775 591 1075 516 
Q 1375 441 1709 441 
Q 2250 441 2565 725 
Q 2881 1009 2881 1497 
Q 2881 1984 2565 2268 
Q 2250 2553 1709 2553 
Q 1456 2553 1204 2497 
Q 953 2441 691 2322 
L 691 4666 
z
" transform="scale(0.015625)"/>
       </defs>
       <use xlink:href="#DejaVuSans-35"/>
      </g>
     </g>
    </g>
    <g id="xtick_6">
     <g id="line2d_6">
      <g>
       <use xlink:href="#mda996759e7" x="299.787778" y="297.88" style="stroke: #000000; stroke-width: 0.8"/>
      </g>
     </g>
     <g id="text_6">
      <!-- 6 -->
      <g transform="translate(295.970278 313.998125) scale(0.12 -0.12)">
       <defs>
        <path id="DejaVuSans-36" d="M 2113 2584 
Q 1688 2584 1439 2293 
Q 1191 2003 1191 1497 
Q 1191 994 1439 701 
Q 1688 409 2113 409 
Q 2538 409 2786 701 
Q 3034 994 3034 1497 
Q 3034 2003 2786 2293 
Q 2538 2584 2113 2584 
z
M 3366 4563 
L 3366 3988 
Q 3128 4100 2886 4159 
Q 2644 4219 2406 4219 
Q 1781 4219 1451 3797 
Q 1122 3375 1075 2522 
Q 1259 2794 1537 2939 
Q 1816 3084 2150 3084 
Q 2853 3084 3261 2657 
Q 3669 2231 3669 1497 
Q 3669 778 3244 343 
Q 2819 -91 2113 -91 
Q 1303 -91 875 529 
Q 447 1150 447 2328 
Q 447 3434 972 4092 
Q 1497 4750 2381 4750 
Q 2619 4750 2861 4703 
Q 3103 4656 3366 4563 
z
" transform="scale(0.015625)"/>
       </defs>
       <use xlink:href="#DejaVuSans-36"/>
      </g>
     </g>
    </g>
    <g id="xtick_7">
     <g id="line2d_7">
      <g>
       <use xlink:href="#mda996759e7" x="342.705556" y="297.88" style="stroke: #000000; stroke-width: 0.8"/>
      </g>
     </g>
     <g id="text_7">
      <!-- 7 -->
      <g transform="translate(338.888056 313.998125) scale(0.12 -0.12)">
       <defs>
        <path id="DejaVuSans-37" d="M 525 4666 
L 3525 4666 
L 3525 4397 
L 1831 0 
L 1172 0 
L 2766 4134 
L 525 4134 
L 525 4666 
z
" transform="scale(0.015625)"/>
       </defs>
       <use xlink:href="#DejaVuSans-37"/>
      </g>
     </g>
    </g>
    <g id="xtick_8">
     <g id="line2d_8">
      <g>
       <use xlink:href="#mda996759e7" x="385.623333" y="297.88" style="stroke: #000000; stroke-width: 0.8"/>
      </g>
     </g>
     <g id="text_8">
      <!-- 8 -->
      <g transform="translate(381.805833 313.998125) scale(0.12 -0.12)">
       <defs>
        <path id="DejaVuSans-38" d="M 2034 2216 
Q 1584 2216 1326 1975 
Q 1069 1734 1069 1313 
Q 1069 891 1326 650 
Q 1584 409 2034 409 
Q 2484 409 2743 651 
Q 3003 894 3003 1313 
Q 3003 1734 2745 1975 
Q 2488 2216 2034 2216 
z
M 1403 2484 
Q 997 2584 770 2862 
Q 544 3141 544 3541 
Q 544 4100 942 4425 
Q 1341 4750 2034 4750 
Q 2731 4750 3128 4425 
Q 3525 4100 3525 3541 
Q 3525 3141 3298 2862 
Q 3072 2584 2669 2484 
Q 3125 2378 3379 2068 
Q 3634 1759 3634 1313 
Q 3634 634 3220 271 
Q 2806 -91 2034 -91 
Q 1263 -91 848 271 
Q 434 634 434 1313 
Q 434 1759 690 2068 
Q 947 2378 1403 2484 
z
M 1172 3481 
Q 1172 3119 1398 2916 
Q 1625 2713 2034 2713 
Q 2441 2713 2670 2916 
Q 2900 3119 2900 3481 
Q 2900 3844 2670 4047 
Q 2441 4250 2034 4250 
Q 1625 4250 1398 4047 
Q 1172 3844 1172 3481 
z
" transform="scale(0.015625)"/>
       </defs>
       <use xlink:href="#DejaVuSans-38"/>
      </g>
     </g>
    </g>
    <g id="xtick_9">
     <g id="line2d_9">
      <g>
       <use xlink:href="#mda996759e7" x="428.541111" y="297.88" style="stroke: #000000; stroke-width: 0.8"/>
      </g>
     </g>
     <g id="text_9">
      <!-- 9 -->
      <g transform="translate(424.723611 313.998125) scale(0.12 -0.12)">
       <defs>
        <path id="DejaVuSans-39" d="M 703 97 
L 703 672 
Q 941 559 1184 500 
Q 1428 441 1663 441 
Q 2288 441 2617 861 
Q 2947 1281 2994 2138 
Q 2813 1869 2534 1725 
Q 2256 1581 1919 1581 
Q 1219 1581 811 2004 
Q 403 2428 403 3163 
Q 403 3881 828 4315 
Q 1253 4750 1959 4750 
Q 2769 4750 3195 4129 
Q 3622 3509 3622 2328 
Q 3622 1225 3098 567 
Q 2575 -91 1691 -91 
Q 1453 -91 1209 -44 
Q 966 3 703 97 
z
M 1959 2075 
Q 2384 2075 2632 2365 
Q 2881 2656 2881 3163 
Q 2881 3666 2632 3958 
Q 2384 4250 1959 4250 
Q 1534 4250 1286 3958 
Q 1038 3666 1038 3163 
Q 1038 2656 1286 2365 
Q 1534 2075 1959 2075 
z
" transform="scale(0.015625)"/>
       </defs>
       <use xlink:href="#DejaVuSans-39"/>
      </g>
     </g>
    </g>
    <g id="text_10">
     <!-- Experiment -->
     <g transform="translate(219.313203 330.371719) scale(0.13 -0.13)">
      <defs>
       <path id="DejaVuSans-45" d="M 628 4666 
L 3578 4666 
L 3578 4134 
L 1259 4134 
L 1259 2753 
L 3481 2753 
L 3481 2222 
L 1259 2222 
L 1259 531 
L 3634 531 
L 3634 0 
L 628 0 
L 628 4666 
z
" transform="scale(0.015625)"/>
       <path id="DejaVuSans-78" d="M 3513 3500 
L 2247 1797 
L 3578 0 
L 2900 0 
L 1881 1375 
L 863 0 
L 184 0 
L 1544 1831 
L 300 3500 
L 978 3500 
L 1906 2253 
L 2834 3500 
L 3513 3500 
z
" transform="scale(0.015625)"/>
       <path id="DejaVuSans-70" d="M 1159 525 
L 1159 -1331 
L 581 -1331 
L 581 3500 
L 1159 3500 
L 1159 2969 
Q 1341 3281 1617 3432 
Q 1894 3584 2278 3584 
Q 2916 3584 3314 3078 
Q 3713 2572 3713 1747 
Q 3713 922 3314 415 
Q 2916 -91 2278 -91 
Q 1894 -91 1617 61 
Q 1341 213 1159 525 
z
M 3116 1747 
Q 3116 2381 2855 2742 
Q 2594 3103 2138 3103 
Q 1681 3103 1420 2742 
Q 1159 2381 1159 1747 
Q 1159 1113 1420 752 
Q 1681 391 2138 391 
Q 2594 391 2855 752 
Q 3116 1113 3116 1747 
z
" transform="scale(0.015625)"/>
       <path id="DejaVuSans-65" d="M 3597 1894 
L 3597 1613 
L 953 1613 
Q 991 1019 1311 708 
Q 1631 397 2203 397 
Q 2534 397 2845 478 
Q 3156 559 3463 722 
L 3463 178 
Q 3153 47 2828 -22 
Q 2503 -91 2169 -91 
Q 1331 -91 842 396 
Q 353 884 353 1716 
Q 353 2575 817 3079 
Q 1281 3584 2069 3584 
Q 2775 3584 3186 3129 
Q 3597 2675 3597 1894 
z
M 3022 2063 
Q 3016 2534 2758 2815 
Q 2500 3097 2075 3097 
Q 1594 3097 1305 2825 
Q 1016 2553 972 2059 
L 3022 2063 
z
" transform="scale(0.015625)"/>
       <path id="DejaVuSans-72" d="M 2631 2963 
Q 2534 3019 2420 3045 
Q 2306 3072 2169 3072 
Q 1681 3072 1420 2755 
Q 1159 2438 1159 1844 
L 1159 0 
L 581 0 
L 581 3500 
L 1159 3500 
L 1159 2956 
Q 1341 3275 1631 3429 
Q 1922 3584 2338 3584 
Q 2397 3584 2469 3576 
Q 2541 3569 2628 3553 
L 2631 2963 
z
" transform="scale(0.015625)"/>
       <path id="DejaVuSans-69" d="M 603 3500 
L 1178 3500 
L 1178 0 
L 603 0 
L 603 3500 
z
M 603 4863 
L 1178 4863 
L 1178 4134 
L 603 4134 
L 603 4863 
z
" transform="scale(0.015625)"/>
       <path id="DejaVuSans-6d" d="M 3328 2828 
Q 3544 3216 3844 3400 
Q 4144 3584 4550 3584 
Q 5097 3584 5394 3201 
Q 5691 2819 5691 2113 
L 5691 0 
L 5113 0 
L 5113 2094 
Q 5113 2597 4934 2840 
Q 4756 3084 4391 3084 
Q 3944 3084 3684 2787 
Q 3425 2491 3425 1978 
L 3425 0 
L 2847 0 
L 2847 2094 
Q 2847 2600 2669 2842 
Q 2491 3084 2119 3084 
Q 1678 3084 1418 2786 
Q 1159 2488 1159 1978 
L 1159 0 
L 581 0 
L 581 3500 
L 1159 3500 
L 1159 2956 
Q 1356 3278 1631 3431 
Q 1906 3584 2284 3584 
Q 2666 3584 2933 3390 
Q 3200 3197 3328 2828 
z
" transform="scale(0.015625)"/>
       <path id="DejaVuSans-6e" d="M 3513 2113 
L 3513 0 
L 2938 0 
L 2938 2094 
Q 2938 2591 2744 2837 
Q 2550 3084 2163 3084 
Q 1697 3084 1428 2787 
Q 1159 2491 1159 1978 
L 1159 0 
L 581 0 
L 581 3500 
L 1159 3500 
L 1159 2956 
Q 1366 3272 1645 3428 
Q 1925 3584 2291 3584 
Q 2894 3584 3203 3211 
Q 3513 2838 3513 2113 
z
" transform="scale(0.015625)"/>
       <path id="DejaVuSans-74" d="M 1172 4494 
L 1172 3500 
L 2356 3500 
L 2356 3053 
L 1172 3053 
L 1172 1153 
Q 1172 725 1289 603 
Q 1406 481 1766 481 
L 2356 481 
L 2356 0 
L 1766 0 
Q 1100 0 847 248 
Q 594 497 594 1153 
L 594 3053 
L 172 3053 
L 172 3500 
L 594 3500 
L 594 4494 
L 1172 4494 
z
" transform="scale(0.015625)"/>
      </defs>
      <use xlink:href="#DejaVuSans-45"/>
      <use xlink:href="#DejaVuSans-78" x="63.183594"/>
      <use xlink:href="#DejaVuSans-70" x="122.363281"/>
      <use xlink:href="#DejaVuSans-65" x="185.839844"/>
      <use xlink:href="#DejaVuSans-72" x="247.363281"/>
      <use xlink:href="#DejaVuSans-69" x="288.476562"/>
      <use xlink:href="#DejaVuSans-6d" x="316.259766"/>
      <use xlink:href="#DejaVuSans-65" x="413.671875"/>
      <use xlink:href="#DejaVuSans-6e" x="475.195312"/>
      <use xlink:href="#DejaVuSans-74" x="538.574219"/>
     </g>
    </g>
   </g>
   <g id="matplotlib.axis_2">
    <g id="ytick_1">
     <g id="line2d_10">
      <defs>
       <path id="m01609b38d8" d="M 0 0 
L -3.5 0 
" style="stroke: #000000; stroke-width: 0.8"/>
      </defs>
      <g>
       <use xlink:href="#m01609b38d8" x="63.74" y="282.26458" style="stroke: #000000; stroke-width: 0.8"/>
      </g>
     </g>
     <g id="text_11">
      <!-- 0.1 -->
      <g transform="translate(27.600625 286.823642) scale(0.12 -0.12)">
       <defs>
        <path id="DejaVuSans-2212" d="M 678 2272 
L 4684 2272 
L 4684 1741 
L 678 1741 
L 678 2272 
z
" transform="scale(0.015625)"/>
        <path id="DejaVuSans-30" d="M 2034 4250 
Q 1547 4250 1301 3770 
Q 1056 3291 1056 2328 
Q 1056 1369 1301 889 
Q 1547 409 2034 409 
Q 2525 409 2770 889 
Q 3016 1369 3016 2328 
Q 3016 3291 2770 3770 
Q 2525 4250 2034 4250 
z
M 2034 4750 
Q 2819 4750 3233 4129 
Q 3647 3509 3647 2328 
Q 3647 1150 3233 529 
Q 2819 -91 2034 -91 
Q 1250 -91 836 529 
Q 422 1150 422 2328 
Q 422 3509 836 4129 
Q 1250 4750 2034 4750 
z
" transform="scale(0.015625)"/>
        <path id="DejaVuSans-2e" d="M 684 794 
L 1344 794 
L 1344 0 
L 684 0 
L 684 794 
z
" transform="scale(0.015625)"/>
       </defs>
       <use xlink:href="#DejaVuSans-2212"/>
       <use xlink:href="#DejaVuSans-30" x="83.789062"/>
       <use xlink:href="#DejaVuSans-2e" x="147.412109"/>
       <use xlink:href="#DejaVuSans-31" x="179.199219"/>
      </g>
     </g>
    </g>
    <g id="ytick_2">
     <g id="line2d_11">
      <g>
       <use xlink:href="#m01609b38d8" x="63.74" y="249.468908" style="stroke: #000000; stroke-width: 0.8"/>
      </g>
     </g>
     <g id="text_12">
      <!-- 0.0 -->
      <g transform="translate(37.65625 254.02797) scale(0.12 -0.12)">
       <use xlink:href="#DejaVuSans-30"/>
       <use xlink:href="#DejaVuSans-2e" x="63.623047"/>
       <use xlink:href="#DejaVuSans-30" x="95.410156"/>
      </g>
     </g>
    </g>
    <g id="ytick_3">
     <g id="line2d_12">
      <g>
       <use xlink:href="#m01609b38d8" x="63.74" y="216.673235" style="stroke: #000000; stroke-width: 0.8"/>
      </g>
     </g>
     <g id="text_13">
      <!-- 0.1 -->
      <g transform="translate(37.65625 221.232298) scale(0.12 -0.12)">
       <use xlink:href="#DejaVuSans-30"/>
       <use xlink:href="#DejaVuSans-2e" x="63.623047"/>
       <use xlink:href="#DejaVuSans-31" x="95.410156"/>
      </g>
     </g>
    </g>
    <g id="ytick_4">
     <g id="line2d_13">
      <g>
       <use xlink:href="#m01609b38d8" x="63.74" y="183.877563" style="stroke: #000000; stroke-width: 0.8"/>
      </g>
     </g>
     <g id="text_14">
      <!-- 0.2 -->
      <g transform="translate(37.65625 188.436626) scale(0.12 -0.12)">
       <use xlink:href="#DejaVuSans-30"/>
       <use xlink:href="#DejaVuSans-2e" x="63.623047"/>
       <use xlink:href="#DejaVuSans-32" x="95.410156"/>
      </g>
     </g>
    </g>
    <g id="ytick_5">
     <g id="line2d_14">
      <g>
       <use xlink:href="#m01609b38d8" x="63.74" y="151.081891" style="stroke: #000000; stroke-width: 0.8"/>
      </g>
     </g>
     <g id="text_15">
      <!-- 0.3 -->
      <g transform="translate(37.65625 155.640953) scale(0.12 -0.12)">
       <use xlink:href="#DejaVuSans-30"/>
       <use xlink:href="#DejaVuSans-2e" x="63.623047"/>
       <use xlink:href="#DejaVuSans-33" x="95.410156"/>
      </g>
     </g>
    </g>
    <g id="ytick_6">
     <g id="line2d_15">
      <g>
       <use xlink:href="#m01609b38d8" x="63.74" y="118.286219" style="stroke: #000000; stroke-width: 0.8"/>
      </g>
     </g>
     <g id="text_16">
      <!-- 0.4 -->
      <g transform="translate(37.65625 122.845281) scale(0.12 -0.12)">
       <use xlink:href="#DejaVuSans-30"/>
       <use xlink:href="#DejaVuSans-2e" x="63.623047"/>
       <use xlink:href="#DejaVuSans-34" x="95.410156"/>
      </g>
     </g>
    </g>
    <g id="ytick_7">
     <g id="line2d_16">
      <g>
       <use xlink:href="#m01609b38d8" x="63.74" y="85.490546" style="stroke: #000000; stroke-width: 0.8"/>
      </g>
     </g>
     <g id="text_17">
      <!-- 0.5 -->
      <g transform="translate(37.65625 90.049609) scale(0.12 -0.12)">
       <use xlink:href="#DejaVuSans-30"/>
       <use xlink:href="#DejaVuSans-2e" x="63.623047"/>
       <use xlink:href="#DejaVuSans-35" x="95.410156"/>
      </g>
     </g>
    </g>
    <g id="ytick_8">
     <g id="line2d_17">
      <g>
       <use xlink:href="#m01609b38d8" x="63.74" y="52.694874" style="stroke: #000000; stroke-width: 0.8"/>
      </g>
     </g>
     <g id="text_18">
      <!-- 0.6 -->
      <g transform="translate(37.65625 57.253937) scale(0.12 -0.12)">
       <use xlink:href="#DejaVuSans-30"/>
       <use xlink:href="#DejaVuSans-2e" x="63.623047"/>
       <use xlink:href="#DejaVuSans-36" x="95.410156"/>
      </g>
     </g>
    </g>
    <g id="text_19">
     <!-- Sensor Signal -->
     <g transform="translate(20.897031 206.69375) rotate(-90) scale(0.13 -0.13)">
      <defs>
       <path id="DejaVuSans-53" d="M 3425 4513 
L 3425 3897 
Q 3066 4069 2747 4153 
Q 2428 4238 2131 4238 
Q 1616 4238 1336 4038 
Q 1056 3838 1056 3469 
Q 1056 3159 1242 3001 
Q 1428 2844 1947 2747 
L 2328 2669 
Q 3034 2534 3370 2195 
Q 3706 1856 3706 1288 
Q 3706 609 3251 259 
Q 2797 -91 1919 -91 
Q 1588 -91 1214 -16 
Q 841 59 441 206 
L 441 856 
Q 825 641 1194 531 
Q 1563 422 1919 422 
Q 2459 422 2753 634 
Q 3047 847 3047 1241 
Q 3047 1584 2836 1778 
Q 2625 1972 2144 2069 
L 1759 2144 
Q 1053 2284 737 2584 
Q 422 2884 422 3419 
Q 422 4038 858 4394 
Q 1294 4750 2059 4750 
Q 2388 4750 2728 4690 
Q 3069 4631 3425 4513 
z
" transform="scale(0.015625)"/>
       <path id="DejaVuSans-73" d="M 2834 3397 
L 2834 2853 
Q 2591 2978 2328 3040 
Q 2066 3103 1784 3103 
Q 1356 3103 1142 2972 
Q 928 2841 928 2578 
Q 928 2378 1081 2264 
Q 1234 2150 1697 2047 
L 1894 2003 
Q 2506 1872 2764 1633 
Q 3022 1394 3022 966 
Q 3022 478 2636 193 
Q 2250 -91 1575 -91 
Q 1294 -91 989 -36 
Q 684 19 347 128 
L 347 722 
Q 666 556 975 473 
Q 1284 391 1588 391 
Q 1994 391 2212 530 
Q 2431 669 2431 922 
Q 2431 1156 2273 1281 
Q 2116 1406 1581 1522 
L 1381 1569 
Q 847 1681 609 1914 
Q 372 2147 372 2553 
Q 372 3047 722 3315 
Q 1072 3584 1716 3584 
Q 2034 3584 2315 3537 
Q 2597 3491 2834 3397 
z
" transform="scale(0.015625)"/>
       <path id="DejaVuSans-6f" d="M 1959 3097 
Q 1497 3097 1228 2736 
Q 959 2375 959 1747 
Q 959 1119 1226 758 
Q 1494 397 1959 397 
Q 2419 397 2687 759 
Q 2956 1122 2956 1747 
Q 2956 2369 2687 2733 
Q 2419 3097 1959 3097 
z
M 1959 3584 
Q 2709 3584 3137 3096 
Q 3566 2609 3566 1747 
Q 3566 888 3137 398 
Q 2709 -91 1959 -91 
Q 1206 -91 779 398 
Q 353 888 353 1747 
Q 353 2609 779 3096 
Q 1206 3584 1959 3584 
z
" transform="scale(0.015625)"/>
       <path id="DejaVuSans-20" transform="scale(0.015625)"/>
       <path id="DejaVuSans-67" d="M 2906 1791 
Q 2906 2416 2648 2759 
Q 2391 3103 1925 3103 
Q 1463 3103 1205 2759 
Q 947 2416 947 1791 
Q 947 1169 1205 825 
Q 1463 481 1925 481 
Q 2391 481 2648 825 
Q 2906 1169 2906 1791 
z
M 3481 434 
Q 3481 -459 3084 -895 
Q 2688 -1331 1869 -1331 
Q 1566 -1331 1297 -1286 
Q 1028 -1241 775 -1147 
L 775 -588 
Q 1028 -725 1275 -790 
Q 1522 -856 1778 -856 
Q 2344 -856 2625 -561 
Q 2906 -266 2906 331 
L 2906 616 
Q 2728 306 2450 153 
Q 2172 0 1784 0 
Q 1141 0 747 490 
Q 353 981 353 1791 
Q 353 2603 747 3093 
Q 1141 3584 1784 3584 
Q 2172 3584 2450 3431 
Q 2728 3278 2906 2969 
L 2906 3500 
L 3481 3500 
L 3481 434 
z
" transform="scale(0.015625)"/>
       <path id="DejaVuSans-61" d="M 2194 1759 
Q 1497 1759 1228 1600 
Q 959 1441 959 1056 
Q 959 750 1161 570 
Q 1363 391 1709 391 
Q 2188 391 2477 730 
Q 2766 1069 2766 1631 
L 2766 1759 
L 2194 1759 
z
M 3341 1997 
L 3341 0 
L 2766 0 
L 2766 531 
Q 2569 213 2275 61 
Q 1981 -91 1556 -91 
Q 1019 -91 701 211 
Q 384 513 384 1019 
Q 384 1609 779 1909 
Q 1175 2209 1959 2209 
L 2766 2209 
L 2766 2266 
Q 2766 2663 2505 2880 
Q 2244 3097 1772 3097 
Q 1472 3097 1187 3025 
Q 903 2953 641 2809 
L 641 3341 
Q 956 3463 1253 3523 
Q 1550 3584 1831 3584 
Q 2591 3584 2966 3190 
Q 3341 2797 3341 1997 
z
" transform="scale(0.015625)"/>
       <path id="DejaVuSans-6c" d="M 603 4863 
L 1178 4863 
L 1178 0 
L 603 0 
L 603 4863 
z
" transform="scale(0.015625)"/>
      </defs>
      <use xlink:href="#DejaVuSans-53"/>
      <use xlink:href="#DejaVuSans-65" x="63.476562"/>
      <use xlink:href="#DejaVuSans-6e" x="125"/>
      <use xlink:href="#DejaVuSans-73" x="188.378906"/>
      <use xlink:href="#DejaVuSans-6f" x="240.478516"/>
      <use xlink:href="#DejaVuSans-72" x="301.660156"/>
      <use xlink:href="#DejaVuSans-20" x="342.773438"/>
      <use xlink:href="#DejaVuSans-53" x="374.560547"/>
      <use xlink:href="#DejaVuSans-69" x="438.037109"/>
      <use xlink:href="#DejaVuSans-67" x="465.820312"/>
      <use xlink:href="#DejaVuSans-6e" x="529.296875"/>
      <use xlink:href="#DejaVuSans-61" x="592.675781"/>
      <use xlink:href="#DejaVuSans-6c" x="653.955078"/>
     </g>
    </g>
   </g>
   <g id="line2d_18">
    <path d="M 85.198889 249.993638 
L 85.198889 120.745894 
" clip-path="url(#pbc052557a1)" style="fill: none; stroke: #4c4c4c; stroke-width: 1.875; stroke-linecap: square"/>
   </g>
   <g id="line2d_19">
    <path d="M 85.198889 247.369985 
L 85.198889 196.077553 
" clip-path="url(#pbc052557a1)" style="fill: none; stroke: #4c4c4c; stroke-width: 5.625; stroke-linecap: square"/>
   </g>
   <g id="line2d_20">
    <path d="M 85.198889 226.347959 
" clip-path="url(#pbc052557a1)" style="fill: none; stroke: #4c4c4c; stroke-width: 1.5; stroke-linecap: square"/>
    <defs>
     <path id="me8e2f568be" d="M 2.34375 0 
L -2.34375 -0 
" style="stroke: #ffffff; stroke-width: 1.125"/>
    </defs>
    <g clip-path="url(#pbc052557a1)">
     <use xlink:href="#me8e2f568be" x="85.198889" y="226.347959" style="fill: #ffffff; stroke: #ffffff; stroke-width: 1.125"/>
    </g>
   </g>
   <g id="line2d_21">
    <path d="M 128.116667 263.47266 
L 128.116667 85.359364 
" clip-path="url(#pbc052557a1)" style="fill: none; stroke: #4c4c4c; stroke-width: 1.875; stroke-linecap: square"/>
   </g>
   <g id="line2d_22">
    <path d="M 128.116667 247.369985 
L 128.116667 182.270575 
" clip-path="url(#pbc052557a1)" style="fill: none; stroke: #4c4c4c; stroke-width: 5.625; stroke-linecap: square"/>
   </g>
   <g id="line2d_23">
    <path d="M 128.116667 223.560327 
" clip-path="url(#pbc052557a1)" style="fill: none; stroke: #4c4c4c; stroke-width: 1.5; stroke-linecap: square"/>
    <g clip-path="url(#pbc052557a1)">
     <use xlink:href="#me8e2f568be" x="128.116667" y="223.560327" style="fill: #ffffff; stroke: #ffffff; stroke-width: 1.125"/>
    </g>
   </g>
   <g id="line2d_24">
    <path d="M 171.034444 249.993638 
L 171.034444 123.402344 
" clip-path="url(#pbc052557a1)" style="fill: none; stroke: #4c4c4c; stroke-width: 1.875; stroke-linecap: square"/>
   </g>
   <g id="line2d_25">
    <path d="M 171.034444 243.401708 
L 171.034444 194.765726 
" clip-path="url(#pbc052557a1)" style="fill: none; stroke: #4c4c4c; stroke-width: 5.625; stroke-linecap: square"/>
   </g>
   <g id="line2d_26">
    <path d="M 171.034444 224.085057 
" clip-path="url(#pbc052557a1)" style="fill: none; stroke: #4c4c4c; stroke-width: 1.5; stroke-linecap: square"/>
    <g clip-path="url(#pbc052557a1)">
     <use xlink:href="#me8e2f568be" x="171.034444" y="224.085057" style="fill: #ffffff; stroke: #ffffff; stroke-width: 1.125"/>
    </g>
   </g>
   <g id="line2d_27">
    <path d="M 213.952222 266.391475 
L 213.952222 123.927074 
" clip-path="url(#pbc052557a1)" style="fill: none; stroke: #4c4c4c; stroke-width: 1.875; stroke-linecap: square"/>
   </g>
   <g id="line2d_28">
    <path d="M 213.952222 249.993638 
L 213.952222 199.521099 
" clip-path="url(#pbc052557a1)" style="fill: none; stroke: #4c4c4c; stroke-width: 5.625; stroke-linecap: square"/>
   </g>
   <g id="line2d_29">
    <path d="M 213.952222 228.84043 
" clip-path="url(#pbc052557a1)" style="fill: none; stroke: #4c4c4c; stroke-width: 1.5; stroke-linecap: square"/>
    <g clip-path="url(#pbc052557a1)">
     <use xlink:href="#me8e2f568be" x="213.952222" y="228.84043" style="fill: #ffffff; stroke: #ffffff; stroke-width: 1.125"/>
    </g>
   </g>
   <g id="line2d_30">
    <path d="M 256.87 256.683956 
L 256.87 146.818454 
" clip-path="url(#pbc052557a1)" style="fill: none; stroke: #4c4c4c; stroke-width: 1.875; stroke-linecap: square"/>
   </g>
   <g id="line2d_31">
    <path d="M 256.87 238.318379 
L 256.87 201.17728 
" clip-path="url(#pbc052557a1)" style="fill: none; stroke: #4c4c4c; stroke-width: 5.625; stroke-linecap: square"/>
   </g>
   <g id="line2d_32">
    <path d="M 256.87 222.576456 
" clip-path="url(#pbc052557a1)" style="fill: none; stroke: #4c4c4c; stroke-width: 1.5; stroke-linecap: square"/>
    <g clip-path="url(#pbc052557a1)">
     <use xlink:href="#me8e2f568be" x="256.87" y="222.576456" style="fill: #ffffff; stroke: #ffffff; stroke-width: 1.125"/>
    </g>
   </g>
   <g id="line2d_33">
    <path d="M 299.787778 257.930191 
L 299.787778 144.030821 
" clip-path="url(#pbc052557a1)" style="fill: none; stroke: #4c4c4c; stroke-width: 1.875; stroke-linecap: square"/>
   </g>
   <g id="line2d_34">
    <path d="M 299.787778 237.826444 
L 299.787778 188.141001 
" clip-path="url(#pbc052557a1)" style="fill: none; stroke: #4c4c4c; stroke-width: 5.625; stroke-linecap: square"/>
   </g>
   <g id="line2d_35">
    <path d="M 299.787778 218.542589 
" clip-path="url(#pbc052557a1)" style="fill: none; stroke: #4c4c4c; stroke-width: 1.5; stroke-linecap: square"/>
    <g clip-path="url(#pbc052557a1)">
     <use xlink:href="#me8e2f568be" x="299.787778" y="218.542589" style="fill: #ffffff; stroke: #ffffff; stroke-width: 1.125"/>
    </g>
   </g>
   <g id="line2d_36">
    <path d="M 342.705556 265.046852 
L 342.705556 132.913088 
" clip-path="url(#pbc052557a1)" style="fill: none; stroke: #4c4c4c; stroke-width: 1.875; stroke-linecap: square"/>
   </g>
   <g id="line2d_37">
    <path d="M 342.705556 241.26999 
L 342.705556 197.684541 
" clip-path="url(#pbc052557a1)" style="fill: none; stroke: #4c4c4c; stroke-width: 5.625; stroke-linecap: square"/>
   </g>
   <g id="line2d_38">
    <path d="M 342.705556 222.2485 
" clip-path="url(#pbc052557a1)" style="fill: none; stroke: #4c4c4c; stroke-width: 1.5; stroke-linecap: square"/>
    <g clip-path="url(#pbc052557a1)">
     <use xlink:href="#me8e2f568be" x="342.705556" y="222.2485" style="fill: #ffffff; stroke: #ffffff; stroke-width: 1.125"/>
    </g>
   </g>
   <g id="line2d_39">
    <path d="M 385.623333 251.108691 
L 385.623333 122.877613 
" clip-path="url(#pbc052557a1)" style="fill: none; stroke: #4c4c4c; stroke-width: 1.875; stroke-linecap: square"/>
   </g>
   <g id="line2d_40">
    <path d="M 385.623333 235.038812 
L 385.623333 190.108741 
" clip-path="url(#pbc052557a1)" style="fill: none; stroke: #4c4c4c; stroke-width: 5.625; stroke-linecap: square"/>
   </g>
   <g id="line2d_41">
    <path d="M 385.623333 215.689365 
" clip-path="url(#pbc052557a1)" style="fill: none; stroke: #4c4c4c; stroke-width: 1.5; stroke-linecap: square"/>
    <g clip-path="url(#pbc052557a1)">
     <use xlink:href="#me8e2f568be" x="385.623333" y="215.689365" style="fill: #ffffff; stroke: #ffffff; stroke-width: 1.125"/>
    </g>
   </g>
   <g id="line2d_42">
    <path d="M 428.541111 265.046852 
L 428.541111 111.497514 
" clip-path="url(#pbc052557a1)" style="fill: none; stroke: #4c4c4c; stroke-width: 1.875; stroke-linecap: square"/>
   </g>
   <g id="line2d_43">
    <path d="M 428.541111 241.26999 
L 428.541111 189.157666 
" clip-path="url(#pbc052557a1)" style="fill: none; stroke: #4c4c4c; stroke-width: 5.625; stroke-linecap: square"/>
   </g>
   <g id="line2d_44">
    <path d="M 428.541111 219.854416 
" clip-path="url(#pbc052557a1)" style="fill: none; stroke: #4c4c4c; stroke-width: 1.5; stroke-linecap: square"/>
    <g clip-path="url(#pbc052557a1)">
     <use xlink:href="#me8e2f568be" x="428.541111" y="219.854416" style="fill: #ffffff; stroke: #ffffff; stroke-width: 1.125"/>
    </g>
   </g>
   <g id="patch_3">
    <path d="M 63.74 297.88 
L 63.74 26.88 
" style="fill: none; stroke: #000000; stroke-width: 0.8; stroke-linejoin: miter; stroke-linecap: square"/>
   </g>
   <g id="patch_4">
    <path d="M 450 297.88 
L 450 26.88 
" style="fill: none; stroke: #000000; stroke-width: 0.8; stroke-linejoin: miter; stroke-linecap: square"/>
   </g>
   <g id="patch_5">
    <path d="M 63.74 297.88 
L 450 297.88 
" style="fill: none; stroke: #000000; stroke-width: 0.8; stroke-linejoin: miter; stroke-linecap: square"/>
   </g>
   <g id="patch_6">
    <path d="M 63.74 26.88 
L 450 26.88 
" style="fill: none; stroke: #000000; stroke-width: 0.8; stroke-linejoin: miter; stroke-linecap: square"/>
   </g>
   <g id="text_20">
    <!-- Distribution of the sensor signals for different experiments -->
    <g transform="translate(55.645938 20.88) scale(0.12 -0.12)">
     <defs>
      <path id="DejaVuSans-Bold-44" d="M 1791 3756 
L 1791 909 
L 2222 909 
Q 2959 909 3348 1275 
Q 3738 1641 3738 2338 
Q 3738 3031 3350 3393 
Q 2963 3756 2222 3756 
L 1791 3756 
z
M 588 4666 
L 1856 4666 
Q 2919 4666 3439 4514 
Q 3959 4363 4331 4000 
Q 4659 3684 4818 3271 
Q 4978 2859 4978 2338 
Q 4978 1809 4818 1395 
Q 4659 981 4331 666 
Q 3956 303 3431 151 
Q 2906 0 1856 0 
L 588 0 
L 588 4666 
z
" transform="scale(0.015625)"/>
      <path id="DejaVuSans-Bold-69" d="M 538 3500 
L 1656 3500 
L 1656 0 
L 538 0 
L 538 3500 
z
M 538 4863 
L 1656 4863 
L 1656 3950 
L 538 3950 
L 538 4863 
z
" transform="scale(0.015625)"/>
      <path id="DejaVuSans-Bold-73" d="M 3272 3391 
L 3272 2541 
Q 2913 2691 2578 2766 
Q 2244 2841 1947 2841 
Q 1628 2841 1473 2761 
Q 1319 2681 1319 2516 
Q 1319 2381 1436 2309 
Q 1553 2238 1856 2203 
L 2053 2175 
Q 2913 2066 3209 1816 
Q 3506 1566 3506 1031 
Q 3506 472 3093 190 
Q 2681 -91 1863 -91 
Q 1516 -91 1145 -36 
Q 775 19 384 128 
L 384 978 
Q 719 816 1070 734 
Q 1422 653 1784 653 
Q 2113 653 2278 743 
Q 2444 834 2444 1013 
Q 2444 1163 2330 1236 
Q 2216 1309 1875 1350 
L 1678 1375 
Q 931 1469 631 1722 
Q 331 1975 331 2491 
Q 331 3047 712 3315 
Q 1094 3584 1881 3584 
Q 2191 3584 2531 3537 
Q 2872 3491 3272 3391 
z
" transform="scale(0.015625)"/>
      <path id="DejaVuSans-Bold-74" d="M 1759 4494 
L 1759 3500 
L 2913 3500 
L 2913 2700 
L 1759 2700 
L 1759 1216 
Q 1759 972 1856 886 
Q 1953 800 2241 800 
L 2816 800 
L 2816 0 
L 1856 0 
Q 1194 0 917 276 
Q 641 553 641 1216 
L 641 2700 
L 84 2700 
L 84 3500 
L 641 3500 
L 641 4494 
L 1759 4494 
z
" transform="scale(0.015625)"/>
      <path id="DejaVuSans-Bold-72" d="M 3138 2547 
Q 2991 2616 2845 2648 
Q 2700 2681 2553 2681 
Q 2122 2681 1889 2404 
Q 1656 2128 1656 1613 
L 1656 0 
L 538 0 
L 538 3500 
L 1656 3500 
L 1656 2925 
Q 1872 3269 2151 3426 
Q 2431 3584 2822 3584 
Q 2878 3584 2943 3579 
Q 3009 3575 3134 3559 
L 3138 2547 
z
" transform="scale(0.015625)"/>
      <path id="DejaVuSans-Bold-62" d="M 2400 722 
Q 2759 722 2948 984 
Q 3138 1247 3138 1747 
Q 3138 2247 2948 2509 
Q 2759 2772 2400 2772 
Q 2041 2772 1848 2508 
Q 1656 2244 1656 1747 
Q 1656 1250 1848 986 
Q 2041 722 2400 722 
z
M 1656 2988 
Q 1888 3294 2169 3439 
Q 2450 3584 2816 3584 
Q 3463 3584 3878 3070 
Q 4294 2556 4294 1747 
Q 4294 938 3878 423 
Q 3463 -91 2816 -91 
Q 2450 -91 2169 54 
Q 1888 200 1656 506 
L 1656 0 
L 538 0 
L 538 4863 
L 1656 4863 
L 1656 2988 
z
" transform="scale(0.015625)"/>
      <path id="DejaVuSans-Bold-75" d="M 500 1363 
L 500 3500 
L 1625 3500 
L 1625 3150 
Q 1625 2866 1622 2436 
Q 1619 2006 1619 1863 
Q 1619 1441 1641 1255 
Q 1663 1069 1716 984 
Q 1784 875 1895 815 
Q 2006 756 2150 756 
Q 2500 756 2700 1025 
Q 2900 1294 2900 1772 
L 2900 3500 
L 4019 3500 
L 4019 0 
L 2900 0 
L 2900 506 
Q 2647 200 2364 54 
Q 2081 -91 1741 -91 
Q 1134 -91 817 281 
Q 500 653 500 1363 
z
" transform="scale(0.015625)"/>
      <path id="DejaVuSans-Bold-6f" d="M 2203 2784 
Q 1831 2784 1636 2517 
Q 1441 2250 1441 1747 
Q 1441 1244 1636 976 
Q 1831 709 2203 709 
Q 2569 709 2762 976 
Q 2956 1244 2956 1747 
Q 2956 2250 2762 2517 
Q 2569 2784 2203 2784 
z
M 2203 3584 
Q 3106 3584 3614 3096 
Q 4122 2609 4122 1747 
Q 4122 884 3614 396 
Q 3106 -91 2203 -91 
Q 1297 -91 786 396 
Q 275 884 275 1747 
Q 275 2609 786 3096 
Q 1297 3584 2203 3584 
z
" transform="scale(0.015625)"/>
      <path id="DejaVuSans-Bold-6e" d="M 4056 2131 
L 4056 0 
L 2931 0 
L 2931 347 
L 2931 1631 
Q 2931 2084 2911 2256 
Q 2891 2428 2841 2509 
Q 2775 2619 2662 2680 
Q 2550 2741 2406 2741 
Q 2056 2741 1856 2470 
Q 1656 2200 1656 1722 
L 1656 0 
L 538 0 
L 538 3500 
L 1656 3500 
L 1656 2988 
Q 1909 3294 2193 3439 
Q 2478 3584 2822 3584 
Q 3428 3584 3742 3212 
Q 4056 2841 4056 2131 
z
" transform="scale(0.015625)"/>
      <path id="DejaVuSans-Bold-20" transform="scale(0.015625)"/>
      <path id="DejaVuSans-Bold-66" d="M 2841 4863 
L 2841 4128 
L 2222 4128 
Q 1984 4128 1890 4042 
Q 1797 3956 1797 3744 
L 1797 3500 
L 2753 3500 
L 2753 2700 
L 1797 2700 
L 1797 0 
L 678 0 
L 678 2700 
L 122 2700 
L 122 3500 
L 678 3500 
L 678 3744 
Q 678 4316 997 4589 
Q 1316 4863 1984 4863 
L 2841 4863 
z
" transform="scale(0.015625)"/>
      <path id="DejaVuSans-Bold-68" d="M 4056 2131 
L 4056 0 
L 2931 0 
L 2931 347 
L 2931 1625 
Q 2931 2084 2911 2256 
Q 2891 2428 2841 2509 
Q 2775 2619 2662 2680 
Q 2550 2741 2406 2741 
Q 2056 2741 1856 2470 
Q 1656 2200 1656 1722 
L 1656 0 
L 538 0 
L 538 4863 
L 1656 4863 
L 1656 2988 
Q 1909 3294 2193 3439 
Q 2478 3584 2822 3584 
Q 3428 3584 3742 3212 
Q 4056 2841 4056 2131 
z
" transform="scale(0.015625)"/>
      <path id="DejaVuSans-Bold-65" d="M 4031 1759 
L 4031 1441 
L 1416 1441 
Q 1456 1047 1700 850 
Q 1944 653 2381 653 
Q 2734 653 3104 758 
Q 3475 863 3866 1075 
L 3866 213 
Q 3469 63 3072 -14 
Q 2675 -91 2278 -91 
Q 1328 -91 801 392 
Q 275 875 275 1747 
Q 275 2603 792 3093 
Q 1309 3584 2216 3584 
Q 3041 3584 3536 3087 
Q 4031 2591 4031 1759 
z
M 2881 2131 
Q 2881 2450 2695 2645 
Q 2509 2841 2209 2841 
Q 1884 2841 1681 2658 
Q 1478 2475 1428 2131 
L 2881 2131 
z
" transform="scale(0.015625)"/>
      <path id="DejaVuSans-Bold-67" d="M 2919 594 
Q 2688 288 2409 144 
Q 2131 0 1766 0 
Q 1125 0 706 504 
Q 288 1009 288 1791 
Q 288 2575 706 3076 
Q 1125 3578 1766 3578 
Q 2131 3578 2409 3434 
Q 2688 3291 2919 2981 
L 2919 3500 
L 4044 3500 
L 4044 353 
Q 4044 -491 3511 -936 
Q 2978 -1381 1966 -1381 
Q 1638 -1381 1331 -1331 
Q 1025 -1281 716 -1178 
L 716 -306 
Q 1009 -475 1290 -558 
Q 1572 -641 1856 -641 
Q 2406 -641 2662 -400 
Q 2919 -159 2919 353 
L 2919 594 
z
M 2181 2772 
Q 1834 2772 1640 2515 
Q 1447 2259 1447 1791 
Q 1447 1309 1634 1061 
Q 1822 813 2181 813 
Q 2531 813 2725 1069 
Q 2919 1325 2919 1791 
Q 2919 2259 2725 2515 
Q 2531 2772 2181 2772 
z
" transform="scale(0.015625)"/>
      <path id="DejaVuSans-Bold-61" d="M 2106 1575 
Q 1756 1575 1579 1456 
Q 1403 1338 1403 1106 
Q 1403 894 1545 773 
Q 1688 653 1941 653 
Q 2256 653 2472 879 
Q 2688 1106 2688 1447 
L 2688 1575 
L 2106 1575 
z
M 3816 1997 
L 3816 0 
L 2688 0 
L 2688 519 
Q 2463 200 2181 54 
Q 1900 -91 1497 -91 
Q 953 -91 614 226 
Q 275 544 275 1050 
Q 275 1666 698 1953 
Q 1122 2241 2028 2241 
L 2688 2241 
L 2688 2328 
Q 2688 2594 2478 2717 
Q 2269 2841 1825 2841 
Q 1466 2841 1156 2769 
Q 847 2697 581 2553 
L 581 3406 
Q 941 3494 1303 3539 
Q 1666 3584 2028 3584 
Q 2975 3584 3395 3211 
Q 3816 2838 3816 1997 
z
" transform="scale(0.015625)"/>
      <path id="DejaVuSans-Bold-6c" d="M 538 4863 
L 1656 4863 
L 1656 0 
L 538 0 
L 538 4863 
z
" transform="scale(0.015625)"/>
      <path id="DejaVuSans-Bold-64" d="M 2919 2988 
L 2919 4863 
L 4044 4863 
L 4044 0 
L 2919 0 
L 2919 506 
Q 2688 197 2409 53 
Q 2131 -91 1766 -91 
Q 1119 -91 703 423 
Q 288 938 288 1747 
Q 288 2556 703 3070 
Q 1119 3584 1766 3584 
Q 2128 3584 2408 3439 
Q 2688 3294 2919 2988 
z
M 2181 722 
Q 2541 722 2730 984 
Q 2919 1247 2919 1747 
Q 2919 2247 2730 2509 
Q 2541 2772 2181 2772 
Q 1825 2772 1636 2509 
Q 1447 2247 1447 1747 
Q 1447 1247 1636 984 
Q 1825 722 2181 722 
z
" transform="scale(0.015625)"/>
      <path id="DejaVuSans-Bold-78" d="M 1422 1791 
L 159 3500 
L 1344 3500 
L 2059 2463 
L 2784 3500 
L 3969 3500 
L 2706 1797 
L 4031 0 
L 2847 0 
L 2059 1106 
L 1281 0 
L 97 0 
L 1422 1791 
z
" transform="scale(0.015625)"/>
      <path id="DejaVuSans-Bold-70" d="M 1656 506 
L 1656 -1331 
L 538 -1331 
L 538 3500 
L 1656 3500 
L 1656 2988 
Q 1888 3294 2169 3439 
Q 2450 3584 2816 3584 
Q 3463 3584 3878 3070 
Q 4294 2556 4294 1747 
Q 4294 938 3878 423 
Q 3463 -91 2816 -91 
Q 2450 -91 2169 54 
Q 1888 200 1656 506 
z
M 2400 2772 
Q 2041 2772 1848 2508 
Q 1656 2244 1656 1747 
Q 1656 1250 1848 986 
Q 2041 722 2400 722 
Q 2759 722 2948 984 
Q 3138 1247 3138 1747 
Q 3138 2247 2948 2509 
Q 2759 2772 2400 2772 
z
" transform="scale(0.015625)"/>
      <path id="DejaVuSans-Bold-6d" d="M 3781 2919 
Q 3994 3244 4286 3414 
Q 4578 3584 4928 3584 
Q 5531 3584 5847 3212 
Q 6163 2841 6163 2131 
L 6163 0 
L 5038 0 
L 5038 1825 
Q 5041 1866 5042 1909 
Q 5044 1953 5044 2034 
Q 5044 2406 4934 2573 
Q 4825 2741 4581 2741 
Q 4263 2741 4089 2478 
Q 3916 2216 3909 1719 
L 3909 0 
L 2784 0 
L 2784 1825 
Q 2784 2406 2684 2573 
Q 2584 2741 2328 2741 
Q 2006 2741 1831 2477 
Q 1656 2213 1656 1722 
L 1656 0 
L 531 0 
L 531 3500 
L 1656 3500 
L 1656 2988 
Q 1863 3284 2130 3434 
Q 2397 3584 2719 3584 
Q 3081 3584 3359 3409 
Q 3638 3234 3781 2919 
z
" transform="scale(0.015625)"/>
     </defs>
     <use xlink:href="#DejaVuSans-Bold-44"/>
     <use xlink:href="#DejaVuSans-Bold-69" x="83.007812"/>
     <use xlink:href="#DejaVuSans-Bold-73" x="117.285156"/>
     <use xlink:href="#DejaVuSans-Bold-74" x="176.806641"/>
     <use xlink:href="#DejaVuSans-Bold-72" x="224.609375"/>
     <use xlink:href="#DejaVuSans-Bold-69" x="273.925781"/>
     <use xlink:href="#DejaVuSans-Bold-62" x="308.203125"/>
     <use xlink:href="#DejaVuSans-Bold-75" x="379.785156"/>
     <use xlink:href="#DejaVuSans-Bold-74" x="450.976562"/>
     <use xlink:href="#DejaVuSans-Bold-69" x="498.779297"/>
     <use xlink:href="#DejaVuSans-Bold-6f" x="533.056641"/>
     <use xlink:href="#DejaVuSans-Bold-6e" x="601.757812"/>
     <use xlink:href="#DejaVuSans-Bold-20" x="672.949219"/>
     <use xlink:href="#DejaVuSans-Bold-6f" x="707.763672"/>
     <use xlink:href="#DejaVuSans-Bold-66" x="776.464844"/>
     <use xlink:href="#DejaVuSans-Bold-20" x="819.970703"/>
     <use xlink:href="#DejaVuSans-Bold-74" x="854.785156"/>
     <use xlink:href="#DejaVuSans-Bold-68" x="902.587891"/>
     <use xlink:href="#DejaVuSans-Bold-65" x="973.779297"/>
     <use xlink:href="#DejaVuSans-Bold-20" x="1041.601562"/>
     <use xlink:href="#DejaVuSans-Bold-73" x="1076.416016"/>
     <use xlink:href="#DejaVuSans-Bold-65" x="1135.9375"/>
     <use xlink:href="#DejaVuSans-Bold-6e" x="1203.759766"/>
     <use xlink:href="#DejaVuSans-Bold-73" x="1274.951172"/>
     <use xlink:href="#DejaVuSans-Bold-6f" x="1334.472656"/>
     <use xlink:href="#DejaVuSans-Bold-72" x="1403.173828"/>
     <use xlink:href="#DejaVuSans-Bold-20" x="1452.490234"/>
     <use xlink:href="#DejaVuSans-Bold-73" x="1487.304688"/>
     <use xlink:href="#DejaVuSans-Bold-69" x="1546.826172"/>
     <use xlink:href="#DejaVuSans-Bold-67" x="1581.103516"/>
     <use xlink:href="#DejaVuSans-Bold-6e" x="1652.685547"/>
     <use xlink:href="#DejaVuSans-Bold-61" x="1723.876953"/>
     <use xlink:href="#DejaVuSans-Bold-6c" x="1791.357422"/>
     <use xlink:href="#DejaVuSans-Bold-73" x="1825.634766"/>
     <use xlink:href="#DejaVuSans-Bold-20" x="1885.15625"/>
     <use xlink:href="#DejaVuSans-Bold-66" x="1919.970703"/>
     <use xlink:href="#DejaVuSans-Bold-6f" x="1963.476562"/>
     <use xlink:href="#DejaVuSans-Bold-72" x="2032.177734"/>
     <use xlink:href="#DejaVuSans-Bold-20" x="2081.494141"/>
     <use xlink:href="#DejaVuSans-Bold-64" x="2116.308594"/>
     <use xlink:href="#DejaVuSans-Bold-69" x="2187.890625"/>
     <use xlink:href="#DejaVuSans-Bold-66" x="2222.167969"/>
     <use xlink:href="#DejaVuSans-Bold-66" x="2265.673828"/>
     <use xlink:href="#DejaVuSans-Bold-65" x="2309.179688"/>
     <use xlink:href="#DejaVuSans-Bold-72" x="2377.001953"/>
     <use xlink:href="#DejaVuSans-Bold-65" x="2426.318359"/>
     <use xlink:href="#DejaVuSans-Bold-6e" x="2494.140625"/>
     <use xlink:href="#DejaVuSans-Bold-74" x="2565.332031"/>
     <use xlink:href="#DejaVuSans-Bold-20" x="2613.134766"/>
     <use xlink:href="#DejaVuSans-Bold-65" x="2647.949219"/>
     <use xlink:href="#DejaVuSans-Bold-78" x="2715.771484"/>
     <use xlink:href="#DejaVuSans-Bold-70" x="2780.273438"/>
     <use xlink:href="#DejaVuSans-Bold-65" x="2851.855469"/>
     <use xlink:href="#DejaVuSans-Bold-72" x="2919.677734"/>
     <use xlink:href="#DejaVuSans-Bold-69" x="2968.994141"/>
     <use xlink:href="#DejaVuSans-Bold-6d" x="3003.271484"/>
     <use xlink:href="#DejaVuSans-Bold-65" x="3107.470703"/>
     <use xlink:href="#DejaVuSans-Bold-6e" x="3175.292969"/>
     <use xlink:href="#DejaVuSans-Bold-74" x="3246.484375"/>
     <use xlink:href="#DejaVuSans-Bold-73" x="3294.287109"/>
    </g>
   </g>
  </g>
 </g>
 <defs>
  <clipPath id="pbc052557a1">
   <rect x="63.74" y="26.88" width="386.26" height="271"/>
  </clipPath>
 </defs>
</svg>
